<svg version="1.0" xmlns="http://www.w3.org/2000/svg" width="1706.7" height="960" viewBox="0 0 1280 720"><path d="M0 360v360h1280V0H0v360zm1231 1v310H50V50h1181v311z"/><path d="M51 361v309h1179V51H51v310zM82 85c2 2 11 4 11 1 0-2 2-1 2 1 1 2 3 3 3 1 0-4 3-5 8-4 5 0 6 1 4 2l-3 5-5 7-2 4-4 1c-4 0-5-1-8-3-2-3-2-3-1-5 2-2 2-2 0-3-3-2-5 0-3 3 1 2 1 3-1 5-2 3-2 4-1 5 3 4 0 6-3 4l-5-2-3-2c0-2-1-3-2-3l-1-9V83h6c6 0 7 0 8 2zm52 0-3 3c-2 0-3 2-3 2l-1 1c-3 0-2-3 1-5 2-3 6-4 6-1zm20 0-2 2c-2 0-3-2-1-3 1-1 3 0 3 1zm53 0c1 2 2 2 6 0s6-2 13-2c5 1 9 1 11 3h5c4-4 6-4 17 7 3 3 3 5-1 7l-2 1 3 3c3 3 3 3 4 2l3-2c2-1 2-1 0-4l-2-4-1-5c0-5 0-6 2-7h34c1 1-9 10-14 12l-18 11-6 3c-3 0 0 3 4 5s5 2 7 0h5c3 1 3 2 2 6l-2 7c-1 3-1 3-5 3l-6-3c-2-2-2-2-3-1l-3 2-2 3c0 3 3 9 7 13 4 3 4 3 6 2l-1 1-2 3-2 3c-1 1-1 1 1 1 3 0 3 1 3 7 0 4 1 5 4 4 2 0 2-1 2-4-1-4 1-8 4-8s3-2 0-2l-4-3v-6l1-6v-5h5c4 1 5 0 8-2 4-1 5-2 8-1 5 0 6 2 2 2-3 0-8 2-11 4l-6 11c0 3 3 2 4-1 0-6 5-6 7-1 1 2 2 3 4 3h9c0-3 2-3 3 0l2 2h5l4-2c1-1 0-3-1-3h-3l-2 2c-1 0-1-3 1-5 2-3 1-5-1-7-3-2-4-5-2-5l6-4 6-3c1 0 2 8 1 10-2 3-2 18-1 21 3 8 3 10 1 13-2 1-2 2-1 3l2-1c0-2 2-1 4 1 2 1 2 2 1 3s-1 2 1 3v9c1 2 13 3 13 1l-3-6-4-7-2-3c-2-1-1-7 0-8 2-2 1-3-2-3-3-1-5-5-3-8 2-2 6-1 7 1 0 2 3 3 4 1 1-1 0-4-1-6l-2-7-1-3c-2-1-8-11-8-13l-2-2c-2 0-3-4 0-6v-8c-3-3-2-5 2-7s5-2 5-1l2 2c4 0 2-3-3-6-4-3-5-4-5-7 0-2 1-3 3-4 6-2 10 1 10 7 1 6 2 7 3 3v-5c-2-3 0-4 8-4 6 0 7 0 7 2l-3 3c-1 2-2 2-1 3s0 2-2 4c-2 3-2 3 0 5s1 4-2 3c-3-2-4-1-3 1l3 4c2 3 1 4-3 2-2-1-3-1-5 1l-2 2 2-1c3 0 5 2 5 6 0 2-1 2-3 1l-5-2c-2-1-2 0-2 2l1 8 1 5 5-4 12-9c2-1 3-4 1-6s-3-6-2-7l6-1 7-1h2c1 1-4 5-7 5-2 0-3 1-3 2 0 2 4 2 6 1 2-2 3-2 3-1l-3 4c-4 2-7 6-5 5l3 2c1 2 6 3 9 1v-4c-2-3-1-4 1-3 5 4 7 0 2-6-1-3-2-4-1-5l1-4 2-5c3-3 3-3 5 0s2 4 1 9c-1 6-1 6 1 8l2 5c0 3 2 4 3 2s1-2 3-1l1 2 1 2 1 4 2 6 3 8c2 6 2 7-5 10-5 2-15 12-15 15l-2 3-1 4-2 6c-2 4-1 6 3 8l4 4c0 3 1 4 3 1 1-1 4-2 4 0 0 1-1 3-3 3l-3 5c-2 7-4 7-5 2l-2-5-16-1h-15v4l1 5 1 3 1 3c3 3 4 8 3 12l-2 4c-2 0-5 3-5 5 0 1 1 2 5 3l8 2c3 0 4 3 2 5-1 1-1 2 2 4l4 3 1 1-2 1-1 1c0 2-2 1-4-3-2-5-4-5-7-1-2 2-2 3-1 8l2 9 2 6c0 5 1 5 5 5 4-1 4-1 5 1 1 3 1 3 3 2l2-2 1-1c2 0 5-5 4-6l-2-1-1-3 1-16c-1-1 0-3 4-5 3-3 6-5 6-7 1-3 2-3 8-3 5-1 8 0 9 1h11l1-3c-1-3-1-3 1-3l3-1c1-1-3-2-9-1l-15 1-9 1c-1 1-2 2-3 1-2-1-1-16 2-18l4 3c3 3 9 6 14 6 3 0 3-2 1-3-6-2-3-4 5-4 5 0 5 0 5-3 0-2 0-2-4-2-10 0-9-4 2-5l19-3c12-1 14-2 13-5-1-2-3-2-26 1-13 2-15 2-14-2 1-2 1-2 23-5 20-2 29-3 30-1 2 2-1 5-4 5-1 0-3 1-3 3-1 2-1 2 2 2s4 1 1 5c-3 3-3 6 0 7s5 1 8-1l3-2v10l-1 4c0 2-1 3-3 5-3 2-5 0-7-5-1-4-3-5-4-1v4c3 3 2 4-1 4h-5 1c2 0 2 0 2 2 0 5-2 5-16 6a464 464 0 0 0-33 0c-2-2-4-1-4 1l2 5 2 6c0 3 3 3 4 0 2-3 8-4 24-4 15-1 15-1 16 2l2 2c4 2 2 3-2 2h-24l2 1c2 0 2 0 1 3v6l-2-2c-1-1-4-2-4 0l-2 1c-1 0-2-1-2-3-1-3-1-4-4-3-4 0-7 3-7 6 0 2-1 2-4 2-6 0-13 7-15 15v3c2-1 2 0 0 1l-1 4-3 5c-3 3-2 4 3 3 3 0 4 0 5 2 3 4 4 3 3-3s1-13 3-13l14-8c5-4 9-5 17-5 9 0 13 2 17 7 3 4 2 6-1 2-6-8-13-8-22 0l-12 8-5 4c0 1 9 2 11 1v-3c0-2 1-3 5-6 5-5 7-5 7-2-1 3 0 3 3 3h3l-2 2c-4 1-4 5-1 5l4-1c2-1 3-2 2-3l1-2c3 0 5 7 5 16l3 16c3 9 2 11-1 15-4 5-4 7 1 7s9 2 15 5c6 5 5 6-2 2l-11-3c-3 0-5 0-7-3-3-2-3-4-3-6 1-2 1-2-2-2s-3 0-3-2l3-1c2 0 3-1 4-4l3-3v-2c-1-1-6-2-6 0l-3 3c-3 4-13 5-22 1l-9-3c-5-3-3 3 3 6 5 4 13 7 14 7l6-1c5-1 6-1 6 1 0 1-1 2-3 2l-6 1h-6a277 277 0 0 0-18-9c-3-3-4-3-4 1l-4 5c-4 2-17 13-17 15l2 1c3 1 2 9-2 10l-3 8c-2 7-3 8-6 5l-2-2v3c-1 6 2 26 4 28s1 3-3 4l-7 3-3 3h7c6 0 7 0 11 4l5 6c0 4 9 7 19 7 17 0 22-3 20-11l-1-10-1-6h5l7-2 9-1 18-3 13-4c1-1 5 3 5 5 0 3-1 3-6 2-6-1-9 0-16 7l-6 4c-3-1-3 0-1 2 4 4 1 9-4 7-4-2-5 0-2 2l6 5c3 4 4 4 6 3s2-3-1-2c-6 1 0-4 18-18 4-3 4-3 6 3l5 9c2 2 3 4 2 5-1 2-4 1-4-1-1-3-2-2-3 4l-1 7v6l-1 7c-3 2-24 7-37 8-14 2-15 1-15-6l1-6 3-2c4-2 10-7 8-8l-2 2-7 4-9 3-9 3-5 1h-3c-1-1 1-2 8-4l5-3h-15l-15 1-5 1-10 2-9 1c-3 0-3 0-2 3l2 4 4 6c6 6 7 9 7 23 0 15 1 17 5 17l4 4c1 3-1 5-5 5h-4l2 4 2 5 1 3v3c-2 2-1 7 1 9v4c-1 2 0 16 1 21l4 9 2 8v16l-1 11-4-2-5-2c-1-1-4-7-4-11l-2-4-3-7c-6-22-8-26-9-26s-2 2-2 5a321 321 0 0 1-7 47l7 7c6 8 8 8 8 1 0-4 1-5 2-7 3-3 8-3 11-1 1 2 4 2 9 3 8 0 9 1 11 4 4 6 4 7 3 18l-1 10-8 1c-9 0-8 0-6-5l-2-1-3-1-2-1c-2 0-8-6-8-8s-2-1-3 1l-2 4-2 3-2 2v3l6 1c3 0 3 0-1 1a2230 2230 0 0 1-131-1l-3-5-10-19a369 369 0 0 0-13-28l3-1c2 0 1-3-4-7s-7-5-13-7l-13-5c-4-2-4-3-4-6l1-7 4-8a315 315 0 0 1 10-21c2-2 1-4-1-4l-2 4-4 7c-1 2-2 3-1 5l-1 3c-1 0-2 1-2 3l-1 2-1 4c-1 4-3 6-3 4l-4-11-3-15-1-7-2-5c0-3 0-3-2-2l-4 2-5 2-8 3-7 2c-6 3-41 3-43 0l-8-6c-5-4-8-9-6-10s13-3 15-2l4-1 3-1 5-1c1-2 3-2 4-2 1 1 2 0 4-2l3-2 3-2 2-1 4-3 3-2-6 2-11 5-8 3-6 1-9 2-8 2-3 1v-53a707 707 0 0 1 0-70l1-13 2 2 2 2-2 3c-2 2-3 9-1 9l1-2 3-5 4-4 1-1c2 1 5 11 4 12l-1-1-2-3c-1-1-1-1-3 1l-1 3-1 5c-2 3-2 3 0 4 2 0 1 3-1 3s-4 3-2 5h2l6-3c2-1 5-2 6-4 3-2 3-3 3-5v-4c2-2-1-7-6-14l-6-4-3-1-2-7-1-7c0-2 0-2 2-1h4l2-2c0 1 2 0 3-2 3-2 2-5-1-4l-2-1 3-2c2 0 4-1 5-3 2-2 2-3 1-6 0-2-1-3-2-3a156 156 0 0 0-10 1l3-1 1-1 3-2c4-1 4-4 0-5-3-1-4-2-2-4 2-1 1-2-1-2s-2 0-1-2c1-4 1-8-1-13-2-7-5-10-8-9-2 1-2 0-2-15 0-16 0-16 2-16h3l4 18c0 6 0 7 2 6l3-2h2c2 2 6-2 6-6 0-3-3-7-5-7l-4-7h2l2-1c0-3 2-3 4-2 2 3 9 2 12 0 2-2 3-2 3-1 1 2 9 2 11 1 1-1 4 0 4 2l-3 7c-2 5-3 7-2 10l1 4c1 0 3-3 3-6 0-2 3-5 5-5v3c-2 4-1 7 3 9l4 4 7 26 1 9c2 3 1 5-3 14-4 10-4 11-3 14l2 7c0 4 3 14 5 16 5 6 10 16 10 20-1 2 0 3 4 5 5 3 9 9 11 15 1 6 2 7 4 4 2-2 2-2 3-1l-2 4c-2 2-3 7-1 7l3-2 3-2c2 1 1 5 0 5-3 0-2 3 1 4l6 2c4 0 4 1 1 3-5 2-7 1-10-2-4-4-5-3-3 2 2 3 2 3 7 3 6 0 7 1 5 2-1 1-3 2-3 4-2 3-2 3 0 5l2 3c-1 1-3 1-5-1s-2-2-1-4c2-2 1-4-1-3-3 1-2 13 2 20l2 7 2 2c2 1 1 3-1 3-1-1-3 0-4 1h-6c1 2 0 3-4 3l-7 1-6 2c-6 0-5 4 2 7 3 1 3 1 3-1-1-3 0-6 1-6l1 4 3 3c3 2 12-1 15-5 3-3 6-4 6-2s3 2 3 0l2-9 2-11c2-4 1-13-1-14l-2 2c-1 2-1 2-3 1l-1-2v-2c-2-3-2-7-1-7s3 3 2 5l1 2 1-5 1-5c2-1 2-2 2-4 0-5 1-6 4-6s3 0 3-2c-1-2 0-2 5 1l18 6c7 1 33 3 35 2 1-1 3 0 5 2l4 3-3 5-2 5 6 10c12 18 20 27 32 31l4 2 6-6c9-9 10-10 10-27v-16l7 3 8 2-4-2c-5-2-6-4-2-5l5-3 4-4 2-2c0-3-4-2-5 0s-3 3-7 5c-7 2-9 2-17 1l-15-2 10 3 5 2c2 3 2 3 1 5-1 1-1 1 1 2 2 0 3 2 1 5-1 1-5 3-8 3-8 0-28-9-33-15-3-3-3-3-3-10 1-6 1-7-2-10-11-14-11-20 2-21 5-1 7-1 8 1 2 1 2 2 4-3 1-2 3-3 9-5l7-2 3 4c2 3 3 4 7 5 8 3 11 2 14-1l3-5 1-3 5 4 2 3c3 3 4 1 6-4 1-6 0-11-2-14-3-3-3-3-8 1-3 3-3 3-6 2-8-3-12-2-30 5-12 5-13 4-9-3l4-10c0-4 1-5 7-8 5-3 7-4 10-3 6 1 9 1 14-1l4-2 2 2 4 6 4 5c2 0 1-15-1-18-2-2-2-2 0-10s2-10 1-21l-1-13 3-3c3-3 4-7 2-14-1-3-1-4 1-5 1-2 1-3-2-12-2-11-5-16-9-20-4-3-4-5 0-6s5-1 4 2c0 3 1 7 4 7l3-3 2-3 3 2 3 3c2 0 1-4-1-5l-1-5c1-4 3-6 5-3 1 1 1 1 2-1 2-2 2-2 1-4l-5-1c-3 0-4 0-4-2v-4c1-2 2-2 4-2h3l3-7c2-7 1-7-4-9-3 0-3 0-2 2l1 7c0 5 0 5-3 5h-3l-2-2-1-3-1-3c-2-2-2-3 0-5 2-4 1-7-1-7s-6-7-6-10l-1-4-1-2 1-2 1-2-1-1c-1 0-3-1-3-3l-2-1 1 3v3l-2 10c0 8 0 9 2 10 2 0 4 3 3 4-2 1-13-8-13-10s-2-1-3 1l-2 2-2-2-4-5c-2-3-4-4-6-4-5 0-8-2-8-4 1-3 2-3 9-1 3 0 3 0 4-2 2-4 3-4 3-1 0 2 4 4 6 2 1-1 1-1 2 1 2 5 5 2 3-3v-4c3-4-2-5-10-3-13 4-18 5-18 3l3-2c2-1 3-3 0-6-2-3-4-3-7 1-1 3-2 5-1 10l1 8c1 2 1 2-1 2s-7 3-7 6l-3 3v-2l1-7 3-6c2-2 2-2 1-4-2-1-2-1-5 2l-4 7c-1 5-4 9-4 5 0-3 5-14 7-16l1-2c-1-1-6 2-6 3l-2 3c-1 0-2 2-2 5-1 4-5 11-8 13-3 1-4 4-1 6 2 2 3 2 5-1l3-2 4-3c4-3 5-2 4 2l1 4c1 1 1 0 1-1l2-2 1 4c0 4-1 5-3 5l-3 2c-1 4-2 4-4 2-2-3-13-7-16-6-5 1-10 3-14 6l-4 3h-1c0 2-3 6-5 6h-1l6-12c4-5 4-6 1-4s-4 1-8-6c-4-6-7-10-15-13l-5-4-3-1c-1 1-3 0-5-1-4-2-6-1-5 3 1 6-4 11-11 11-2 0-4 1-4 3l-2 4c-5 5-10 6-14 3-3-2-5-3-5-1l4 5c2 3 4 4 6 4 4 0 6 1 6 4l2 4v4l-4 1c-3-1-4-4-1-5 1 0 2-5 0-5-3 0-5 1-5 4s-2 2-7-3l-5-8c0-9 0-10-2-10l-4 2-4 4c-4 2-4 0 1-6l3-5c0-2 2-2 5 0 2 1 2 1 2-1s0-2 5-2c4 1 5 1 7-1l2-2 2 2c2 1 3 2 4 1l4-1c4 2 13-10 13-15v-4l-2 4c-2 4-4 6-6 4l-2-3c0-2-4-7-6-8-5-1-8-3-8-4l3-1 6 2c2 0 3 0 3-2 1-2 4-3 4-1 0 3 2 3 6 2h5c1 2 4-1 4-4 0-2 0-4 3-6l5-2c2 0 1-5-1-6-4 0-7-3-8-6 0-3 0-3 2-3l2 3c1 4 3 4 2 0 0-5 0-5 6-2 4 2 4 2 6 0h3c2 2 6 1 7-2l2-3c2-2 1-8-1-12l-4-6-3-3c-2-1-5-9-4-10l1-2c0-3-4-3-4 0-1 2-1 2-1 0l-2-4c-1-2 1-7 6-9 2-1 2-1 5 1 2 3 2 3 4 2 2-2 1-4-1-7-3-3-5-3-8 1l-5 3c-2 0-2-1 0-3l1-3h-1c-2 2-4 0-4-3s4-4 7-1zm198 0c0 1-4 6-6 6l-1 3-2 5-1 2-3-3-7-5c-5-3-6-4-4-7 1-2 4-2 11-2 12-1 12-1 13 1zm61-1 5 1c4 0 4 3 1 5v2c1 2 3 0 3-2l3-4 3-2h52a648 648 0 0 1 52 2l-4 4c-2 3-2 3-1 6s4 3 3-1c0-3 1-4 3-7l4-4h35l37 1v1l2 5 3-3 1-4h11c11 0 11 0 14 3 4 4 9 4 14 0l3-3h14l14 1c2 3 9 3 10 1 0-2 8-3 13-1 8 2 12 3 14 2l14-1 12 1c0 2-1 3-5 5-5 3-5 3-2 7l2 5c0 3 3 8 5 8s4-4 4-6l2-4c2-2 3-3 6-3s3 0 3 2-1 3-3 3-3 1-4 4l-1 6-2 5-4 7c-1 4-3 4-4 0l-2-4c-2-1-4-6-3-8l-1-5c-1-3-2-4-4-4l-5-3c-2-2-2-2-4-1l-1 3c0 3-2 3-7 2-9-4-19-1-23 5-2 5-1 10 2 11 1 0 2 1 1 2v7c2 1 4 0 4-4 1-5 3-5 7-1 3 3 6 4 11 4 3-1 4-2 5-5l3-3 5-1h4v5c-1 6 0 7 5 7 4 0 7 2 5 2l-6 1c-5 1-5 1-7 5-1 4-1 5 1 8 1 4 1 7-1 8l-2-2-2-3c-3 0-3 4 0 5l2 6c1 4 1 5 3 5 1-1 2 0 2 3 1 3 1 5-2 5l-2 2c-2 3-4 2-7-3-4-6-7-7-9-4l-1 3c0 3 5 10 8 11 3 0 5 2 5 4 0 3 2 5 4 5l5-9 3-5c3-2 3-3 2-4v-2c1-2 3-1 4 2l7 9 6 7h-3c-2 0-2 0-2 2 1 2 7 2 9-1 2-2 2-2 4-1 2 2 1 4-2 4-2 0-3 1-3 3-3 13-4 14-11 14-3 0-5 1-5 2l1 1c2 2 1 4-4 9l-5 5-1-3c0-2-2-3-4-4-5-2-5-3-2-13 0-3 0-3-2-3-5 2-7 2-7 1l1-2c2-1 1-3-2-5h-3l-2 1v-1l1-3-5-7c-2 0-1 3 0 4 2 1 2 1 1 2-2 1-3 1-3-1l-1-1c-4-1-6-1-8 1l-5 3c-4 1-4 1-7-2-4-5-8-9-10-9l-4-2-2-1 3-2c3-2 4-2 6-1 3 1 4 2 1 4v3l6 3h3l-1-3 1-4h2l3 1-2-3-4-3 6-11 1-2c0-1-1-2-6-3-11-2-18-2-21 0l-4 2c-2 0-3 2-1 3s13 0 14-1v7c-1 3-3 4-3 1l-3-3c-3 0-4 1-2 3 2 1 2 1 1 2h-3l-3 1c-1 2-1 3 1 3s4 2 4 3l-3 1-3-2-3-3-3-1c-1-2-3-17-2-18l4-1 7-2 2-2h-3l-5-1-5 1c-2 0-3 1-3 2s-6 3-13 3c-4 1-5 1-7-1s-4-3-6-2c-2 0-3 0-5-2l-4-2c-2 0-3-1-5-4-2-4-1-5 3-3 3 2 6 2 6-1l2-2 5-3c3-2 6-3 4-1v5l4-1c2 0 3-1 3-2-1-1 0-3 2-5s2-5 0-3l-3 1-3 1c-1 2-1 2-3 0l-8-5-6-3c-1-3-13 1-16 5-1 3-6 6-8 5-1-1-1-2 1-4l3-3h2c3 0 6-2 10-10 2-3 5-6 11-10 12-8 14-12 7-14-3-1-3-1-4-4l-1-4c-3-1-4 1-2 3 2 1 2 1 0 1h-5l-3 1c0 2 7 6 9 5 2 0 5 2 3 4-2 3-6 2-11-1l-4-3-6 3-8 5c-2 3-5 9-5 12 0 2-2 4-3 2h-6l2 3 2 4c0 2-1 2-7 1-8 0-14 2-18 8-2 4-2 5-1 9v8l1 3 1-1h1l3 1c3 1 4-1 2-4l-1-5c1-3 1-3 5-3s6-1 10-4l6-4c2 1-7 8-12 10l-4 2c0 1 1 2 3 2 4 2 14 2 16-1 2-1 3-1 3 2 0 1 4 6 6 6l1-2 3-1 3 1 2 2c2 0 2 2 1 4-2 2-2 3-1 5l1 3-5 3-4 3 3 1 7 3c2 2 4 2 4 1 2-2 3-1 5 2 1 4 2 4 4 0 1-3 1-4-2-4-2 1-9-7-7-8h3l1-2c-1-2 1-4 2-2l3 1 4 1c2 1 2 1 1 2l-5 2c-3 1-4 4-1 4 4 0 7 4 9 12l2 7-7 6c-6 6-7 7-10 7-4 0-4 0-7-6-5-9-7-12-8-10-1 0 0 3 3 8l4 8-2 2-6 4c-2 2-5 3-7 3l-3 1 3-2 4-3h-6l-10 2c-9 2-11 3-9 7 1 2 9 2 16-1h6l-1 3c-2 4-3 6-1 8 2 1 1 4-1 4l-2 2h2c5-2 6-1 7 2l1 3v5c0 4 0 5 7 14l7 11 1 4c2 3 2 3 0 5 0 2-2 3-3 3-3 1-3 3 1 4l4 2h4c0-1-1-2-3-2-4-1-4-3 0-4l2-2c0-2 2-3 4-2l1 2 1 5c2 3 2 5 0 8s-3 3-7 2l-4-2-1-2-3-2-4-4-3-2 1 9c0 7 1 8 4 11l4 8 3 4c2 0 2 1 2 3 0 1 0 2-6 2-8 1-9 2-8 5 1 1 0 3-3 8l-8 8-3 2 2 1c2 1 9 1 16-1 5-1 6 0 6 4-1 4 1 7 7 10 4 2 5 4 5 6 1 5 3 4 3-2 0-7 2-18 5-23 5-9 19-15 34-15l9-1 1-3v-3l10-2c11-2 13-3 8-8-3-4-4-5-2-8v-3l-3-1c-2-2-1-4 2-3 2 1 3 0 5-1 2-2 2-2 1-4-1-3-1-3 1-3 1 1 4-1 4-4l1-2 1-1-14-8-1-2c0-3 4-7 6-7l4-1c3-3 5-2 4 1-1 5 11 13 19 13l6-3c3-4 4-9 1-13-2-3-4-3-4 2v4l-6 1c-6 0-6 0-10-4-3-3-4-5-4-7 0-3-4-7-5-6l-1 3c-1 3-5 9-7 9l-3 2-5 2c-3 0-10-3-13-6-6-5-7-1-2 5l4 4 8 6c3 3 4 3 4 0l2-2c1 0 2 4 1 6-1 4-21-3-26-10-3-4-4-4-7-1-2 2-2 2-3 1-2-2-4-2-7 0l-2 2-4-5-5-8c-1-2-3-3-7-4-4 0-6-1-7-3 0-2-1-2-3-2-3 1-4 0-6-2-3-4-4-5-2-7s4 0 3 3c0 2 0 2 2 2l5 1c3 2 5 1 5-3l1-2h8c5 0 6 0 6 2 1 4 0 6-2 5-2 0-3 2-1 2 2 1 2 2 1 3-1 4 3 7 9 7 4 0 4-1 5-3 1-3 2-4 4-5 4-1 3-2-2-3l1-7c3-2 7-1 8 1 2 3 3 2 3-1 0-5 3-7 6-3 3 3 13 6 23 5 2 0 3-1 5-4 1-3 1-3 5-3 3 1 6-1 6-3l2-1c2 0 2-2 0-4-1-3-1-4 2-4 2 0 2 1 2 3 0 5 2 6 5 5l4-3c0-3 4-1 5 4 0 2 3 5 5 8 3 2 5 5 5 6l2 6c3 5 2 7-1 5l-5-2 2 2 4 2c2 0 15 9 16 11l2 8 4 17c3 8 3 10 1 12l-3 3c-2 1-2 2-2 6l2 7c0 1 0 2-2 3h-7c-3 0-3 0-3 2 1 2-3 7-5 7-4 0-15 13-14 15l2 1 3 3c2 2 2 4 1 9v6l3 1c3 1 5 1 6-1h3l1 12-2 12c-3 2-16 4-27 4-10 0-11 0-13-2s-2-3-1-4l1-6v-12l1-7c-1-3-1-4 1-5 4-2 9 1 15 8 1 2 1 2 3 1 3-1 3-5 0-5l-4-3c-3-7-16-11-35-11-14-1-22 1-34 6l-12 3c-5 1-9 5-12 9-2 4-1 4 2 8 4 4 6 3 6-4 0-6 1-7 7-9s6-2 6 0l3 1 6-2c3 0 4-2 0-3l-2-1c0-3 24-4 30-2 2 1 3 2 2 3-1 4-1 5 5 6 4 0 7 1 7 2l1 8v8c1 3-1 12-3 17l-1 7v3c-2 1-4 4-4 6l2 2c2 0 3 1 3 2 0 3-3 3-5 0l-1-2-2 2c-7 8-6 8-17 8-12-1-21-3-30-10l-6-4c-3 0 0 4 5 10 3 3 6 6 5 7l3 4 5 6 4 3h2l-3 1c-2 0-2 0-1 3 1 2 2 2 4 2 4-1 6 1 3 2-8 2-22-4-27-12l-6-7c-2-2-2-2-1 0 5 11 5 12 0 12-2 0-4-1-5-3-2-3-5-3-7 0l-3 3c-4 2-8-1-9-4l-1-4c-2-1-1-4 0-5 4-3-2-4-9-1-8 3-13 7-17 16-3 5-5 9-8 11l-6 7-2 5-3 5-5 9-3 8c0 3-3 10-5 11l-1 4c0 4-5 21-7 23l-1 4c1 1 0 3-4 10l-2 6-2 3-2 3c1 1 0 2-1 4l-2 3 7 2 7 3c1 1 0 3-2 5a219 219 0 0 0-23 38c-3 4-7 15-7 18 1 2 0 3-1 3h-9l-1-19c0-12-1-19-2-22l-1-24-1-19-4-5-9-6-11-7-18-10c-14-7-19-10-21-14s-1-7 3-14c4-9 12-16 20-21 9-6 12-9 12-12s7-13 14-18l9-8 6-4c4 0 5-2 3-4-1-2-2-5-2-15l-2-16c-2-3-1-6 3-9l6-5c4-3 4-3 7-1h3c2 0 3-4 2-7-1-2 0-7 3-11 2-3 12-10 16-10l11-4c10-4 21-4 24-2 2 3 4 2 4-1l1-5c1-2 1-4-1-6-3-4-4-9-2-18a252 252 0 0 0 6-23l2-11 2-6c2 0 8-8 10-13l3-20-10 2h-17v-31c1-2 4-2 10-3l10-2c1-2 1-2-1-4-2-3-3-5-1-7 1 0 1-1-1-2-2-2-1-3 1-3 1 0 3-1 5-6l2-6c1-1 5 2 5 4 0 3 3 3 6 0l3-2-2-1-4-2-2-1-4-2-6-3-4-2c0-2 2-5 3-5 2 0 3-2 2-3l-5 1c-3 2-4 2-8 1l-7-2-4-2h-2l1 2 3 4c0 2 1 4 3 5l2 3 2 2 2 2h4v-4c-1-3 1-2 3 1l2 3-2 2c-3 4-19 0-23-5l-2-4-1-3-8 6-11 9-5 3-1-7c-2-8-8-17-12-17l-3-2c-1-2-1-2-2 1l-5 6-4 3-5-2-6-3-2-4c-1-5-4-8-7-8-4 0-4-2-1-3l2-2c-1-2-7-4-11-4-3 0-11 3-11 4l3 5c2 3 3 5 2 6-2 2-4 0-6-4s-4-4-4 0c-2 8 1 14 5 14l5 1 4 2 3 2c1 2 4 1 4-2 1-2 3-3 4 0 1 1 0 1-2 2-3 1-3 4 0 4 2 0 3 2 1 3s-1 2 0 2c3-1 2 2 0 3-3 2-8 1-9 0-2-2-5-2-5-1 0 2 5 6 9 8l-4-1c-2 0-2 0-1 2l3 3c3 2 4 2 7 1 4-1 5-3 4-7s-1-6 1-8h5c5 1 7 0 6-4 0-3 0-4 2-4l6-1c3 0 3 1 4 4 0 5 3 6 3 1 0-3 2-4 5-1 3 1 3 2 3 10s0 9 2 11c3 2 4 4 1 5l-2 7-3 11c-3 4-3 5-3 10v6l-3 1h-5c-2-2-3-2-3 2l2 3c2 0 3 3 0 6-1 1-2 4-2 14v14h3c2-1 2-1 4 2l3 6c2 3 0 14-2 14v-1c0-2 0-2-1-1s-2 2-1 3l-2 2c-2 0-2 1-1 6l1 7c1 2 6 4 7 2l5-29c1-10 4-8 7 5 2 4 2 7 1 14v19c3 2-2 8-6 8l-4 2c-3 2-5 1-5-1 1-2 1-2-2 0-2 3-3 2-4-7l-1-8h-4c-3 1-4 2-5 5l-1 13c1 8 1 10 3 11 7 5 6 5 5 7-1 3-3 3-2 0l-1-3c-2-1-2-1-4 1l-2 4c0 3-2 7-4 8l-3 2c-3 3 0 4 2 1l3-1v8c-1 2-3 3-13 4-24 3-25 3-21-2l2-5c0-2 2-4 3-2l3 1 11-6 3-1c3 0 2-2 0-3s-2-1-1-3c2-2 2-3 1-5-1-1-2 0-4 1l-5 2c-2 0-10 5-10 7l2 1-9 3-8-1h-15c-15 3-17 2-23 0-4-2-6-5-6-9 1-2 5-2 14-2 26 1 31 0 35-2 3-2 3-2 3-6s1-5 3-7c2-3 12-7 19-9l4-1v-5c0-5 0-6-2-7-2-2-3-6-1-10 1-1 0-2-2-3-4-2-4-3 0-4 2 0 3-1 3-2l1-2c2 0 3-3 1-4h1c1 0 2-2 2-6l2-2 2-1c1-1-5-7-10-9-3-1-4-4-2-5l3-2c1-2 1-2-5-2-6 1-6 1-14-3-9-4-12-7-12-9l-1-1-1 1 7 13 2 3 4 5c2 1 3 2 2 3-1 2 6 7 8 6 2 0 3 2 1 4h-11c-3-2-4-2-4 0 0 1 2 4 6 7l4 6-5-5a3121 3121 0 0 1-22-26c1-4-1-3-5 2l-11 9c-6 4-8 4-8 3-1-3-4-2-5 0v3c3 0 2 2-1 4-2 0-4 2-5 3-3 3-4 2-4-4l-2-11c0-2-2-1-2 1-1 3-3 3-4 0 0-1 0-2 2-3l2-2 5-3 4-3c0-2 0-2-4-2-4 1-4 1-6-3l-2-6-2-4c-3-3-2-5 1-7 3-1 3-2 3-5 0-4 2-6 5-6l1 3c0 2 0 2 2 2l3 1-2 1-5 3-4 3c-1 0-2 3-1 4l2 6c1 4 3 7 6 5l3-6c2-5 3-6 5-6s3-1 4-3l1-5c-1-1 1-4 5-11l6-10 11-22c2-2 2-4 2-6-1-4-3-5-4-2 0 1-2 2-2 0l-2-6c-2-5-2-7 1-8 2 0 6 6 6 8s1 3 3 1c1-2 0-15-1-17h-4c-2 0-3 1-3 3l-1 2-1-4v-14c-1-2-1-2 3-1 3 0 4 0 6-3s2-4 1-7-4-4-4-2l-1 1-2-7c-2-13-4-15-13-19-6-3-8-4-6-7 1-1 0-3-2-3l-2-2c-1-1-1-1-1 2l1 4c3 2-2 5-6 3-2-1-2-1-2 1l2 4 2 3c0 2-5 0-8-2-1-2-3-2-4-1-3 0-12 10-13 12h-2l-4-5c-6-6-10-5-22 5l-5 4c-2 0-1-6 0-10 2-4 7-8 12-9 3-1 3-2 4-6s2-5 4-2v3c-3 2-2 4 2 4 1-1 2 0 3 1 2 3 3 1 3-4s0-6-4-11c-6-6-12-8-15-5-2 2-6 1-6-1 0-1 2-2 9-2 6-1 8-2 8-3s-1-2-2-1c-3 0-5-1-3-3 1-1 2-2 3-1h2c1-1 1-5-1-7-1-3-1-3 1-3a202 202 0 0 1 35-1zm416 1 4 2c0 2 6 1 8-1s3-2 29-2l30 2 31 1-6-1h-3l3-1a398 398 0 0 1 57-1c2 2 2 2-1 6-3 7-3 13 0 14s3 1 5-1l3-2 4-3c3-3 3-3 6-2 1 0 3 1 3 3 0 1 0 2 5 1l7-1 3-1-4-1c-3 1-4 1-6-1-1-2-2-3-1-4s0-2-4-4c-6-3-6-5 3-4 5 0 6 2 6 5-1 2 0 2 2 3 3 2 5 0 5-4v-3h17v2l1 3 1-3c0-2 1-3 3-3l3 1c2 3 1 6-1 6h3l4 1 12 1c14 0 12-2-3-3h-10v-3l1-3 16 1h16v4c0 3 1 4 3 4s2 0 2-4l1-5h31v4c0 4 2 7 4 5l1-4 1-5h35v15h-7c-7 0-10 1-9 3h13l3-1v50l-3-1c-5-2-6-1-1 3 3 3 4 5 4 7 0 3-1 4-2 4l-1-1h-1l2 2c2 2 2 2 2 17s0 15-2 15c-2-1-3-1-3-6l-2-8-1-9c1-6 1-7-3-10l-3-4-3 3-6 4h-3l5 8 9 8c3 1 5 4 3 5 0 1-2 1-4-1-3-3-6-3-10 1-5 3-11 4-16 3h-4l3 4c4 3 4 3 8 2h5l4 2c2 0 3 0 3-2s1-3 2-3l13 5 5 3v14l-3-2-7-6c-4-4-4-4-7-4-3 1-4 1-4-1h-3c-2 2-6 2-9-1-1-1-2 0-4 2l-2 4-1 2c-1 2-2 2-6 2l-5 1c0 1-1 2-3 2l-2 1 4 6 3 3 7 3c3 0 4 0 3 2s-1 2-5 0c-6-1-12-5-19-10l-5-4 3-5c2-7 3-8 0-13-2-2-2-4-2-6 1-2 0-3-2-6l-4-3c-2 0-2-1-2-3 0-4 4-9 6-9 3 0 2-2 0-2-2-1-2-2-2-5 0-4 1-5 3-5s2 0 2 3c0 4 2 7 3 7 2 0 2-2 0-5s-1-5 1-5c3-1 2-3-3-5-3 0-4-2-6-5-2-2-3-6-3-8-1-2-1-3 2-4s3-2-1-4c-2-2-5-2-5 1 0 1-2 2-4 0-1-1-2-2-4-1l-6 2h-4c-1 0-4 2-6 5l-4 5v6c1 5 0 7-1 8l-1 14 1-1c0-3 3-2 4 1 2 4 3 4 5 0 2-3 2-3 0-4-2 0-5-7-5-8 1-3 3-2 7 2l4 4 1-4v-4c1-1 11 6 11 8v5c0 1 0 2 2 3s2 1 0 2h-3l-4-1-5-1-2-2c-2 0 0 10 1 12l2 4c2 5-5 1-12-7l-4-4-1 2-3 5c-3 3-4 4-2 4 3 0 2 3 0 4-3 2-4 1-4-1 2-3-1-2-7 3-3 2-5 5-5 6 0 2 0 2 3-1l3-4 5-2-9 13c-3 1-4 7-5 16v9l4 1c5 1 6 3 3 7-2 4-2 5 0 7s1 5-3 9c-2 2-2 3-1 5l2 12c1 9 2 10 4 12 4 1 17 1 20-1 4-2 4-1 4 2s4 9 8 12c3 3 13 6 19 6 7-1 11-5 11-10-1-3 1-4 3-2 2 3 4 0 4-5l1-5h12l14-2h2v6c-2 10-2 12 0 13 3 2 5 0 9-6 3-4 4-7 4-9 0-5 1-9 3-9 1 0 2 2 2 6l1 3 1-7c2-21 3-10 3 44s-1 58-2 59-2 1-4-1c-3-2-4-2-11-2-13 1-15 3-21 30-7 31-7 31 9 31l11-1h5l8 1h5v116h-4c-3 0-4 1-4 2-2 3-17 58-17 60l7 1c7-1 7 0 10-12 1-4 1-4 5-4h3v51h-92v-5l2-8c0-2 0-2-5-2a333 333 0 0 1-32-1h-4c-2 0-2 2 0-27l1-13h19c18-1 20-1 24-3 6-3 8-6 8-11l1-8a470 470 0 0 0 10-47c1-8 1-10-3-10-2 0-4-3-4-6s2-3 5 0 4 2 3-1l1-4c2-2 3-4 5-21l3-10 2-7 1-9 5-27a82 82 0 0 1 3-16c1-3 0-4-11-10-5-3-6-4-6-7l1-4 7 4c7 4 10 5 11 2 2-4-5-12-13-14-5-1-5-1-4-4l1-5 2-8 1-7c2-2 6-1 7 1l4 2 4 1 4 1c3 0 4-1 6-3 1-2 2-2 6-2 3 0 4 0 4 2s0 2 4 1c2 0 4 0 5 2 2 1 2 1 2-2-3-12-2-13 3-9 4 2 7 3 7 1l-4-4c-4-2-5-3-11-3h-6l2-1 3-1 2-4c0-3 0-3 5-2l7-1c2-2 2-2 0-5l-3-4-1-2c-3-2-3-5 0-10 2-5 2-7 2-18l1-13v-2c-2 0-9 12-9 16 0 3-4 16-7 20l-1 4v2l-1-1-1-1-1 2-2 2c-1 0-2-2 0-4 2-1-1-6-3-6-3 0-3 1-1 4 2 4 1 5-3 3l-7-3-5-1c-2-2-12 1-22 6l-8 5h5c6 0 10 2 15 8 5 5 5 7 0 8-8 0-10 1-11 4s-6 5-6 3l-3-4c-3-4-4-4-6-3-3 1-9-2-16-7-4-4-5-5-9-5l-6 1-16 1c-14 1-19 2-22 5h-2l-3-1c-3-1-4 0-6 2l-3 3-3 3c-2 3-6 13-4 15l1 5c0 3 0 5-1 4l-1-5-1-5c-2 0-1-9 0-12 2-5 9-11 13-13 5-3 16-5 26-5 4 0 4 0 5-4 2-6 1-7-4-5-2 1-5 2-11 1h-8l-4-4-4-4 3-3c2-2 3-2 7-2l6 2 5 1c5 1 5 3 1 3-3 0-5 1-4 3h6l6-1c1-2 3-3 3 0l2 4 2 4c0 2 0 2 1 1l2-2 3-6c4-6 4-13 0-9-2 3-4 2-4 0l1-14c0-3-2-3-2 0l-3 5-2 5-2 1c-1 0-2 0 2-7 6-14 2-22-15-31l-7-3c-2-1-8-11-8-13h7c7 0 8 0 6-3-1-1 0-2 2-3l2-4 4-4 5-5c0-1 1-2 3-2h2l-2-2-5-2c-2 0-3-1-4-3l1-5c0-2 1-3 3-2 3 0 4-1 1-3l-1-10-1-10c-1-1-1-1 1-3 3-3 1-8-5-12-3-3-7-2-12 1-6 3-7 5-4 5 4 0 4 3 0 4-4 0-4 1-3 5 1 2 1 3-1 6l-2 9c0 5 1 6 3 7l7 1c4 0 4 1 5 3l2 5c1 0 2 2 2 5 0 9-2 9-10 0l-6-5-4-3c-3-2-3-3-3-7l2-7c1-3 1-3-1-5l-2-1-1-2c0-1-1-2-3-2-3-1-3-6 1-15 2-7 4-9 9-10l6-2h6c4 3 5 2 5 0-1-4 0-5 4-2l12 7c1 0 2-3 1-5s-1-2-3-1c-1 1-2 1-4-2l-2-4-4-5c-3-2-4-3-4-5v-3h-8c-9 0-8 1-9-8l-2-6c0-3 0-3 4-4 6-2 5-2 4-4-1-1-2-2-3-1l-2 1c-3 0-3-3 2-7 4-4 5-7 3-7l-3 2c-3 3-6 2-13-2l-4-2-8 5c-4 3-8 7-8 9-3 4-4 20-3 22 1 1 2 8 1 26v24l4 2c6 4 7 5 8 9 2 5 2 6-3 8-3 1-3 1-5-1h-3l-3 5c-6 7-10 14-10 17l1 9v9l-4 11-2 8 3 2 4 3 3-6c3-6 9-17 11-17l-1 23-1 12c1 4 0 4-2 5l-3 3c0 1 3 1 5-1h2l-1 4c-3 4-3 4-3 22 0 20 1 26 4 26 1 0 3 2 6 8l4 10c0 2 3 7 5 7l5 2c4 2 5 3 6 6l1 4 3 7c2 6 4 7 6 4 1-2 4-3 10-1 4 1 6 3 9 10l2 5c2 0 3-7 2-13s0-9 2-9l10 4 9 4 2 2c2 3 14 4 16 2v-6l5-4c3-3 9-7 11-7 3 0 2 0-2 4l-4 7v3l2-2c4-4 10-6 11-5 2 1 0 3-4 4-2 0-3 1-3 3 0 3 3 4 6 2 4-3 4-3 6 2 1 4 1 15-2 26-1 8-10 24-14 26-6 3-19 1-35-6-6-2-6 0-1 4l4 6c1 2 2 3 7 4 4 1 8 2 9 1h3l-1 2-2 7c0 6-3 18-4 18l-5-3-8-4c-4-2-25-23-31-32-5-7-5-8-2-20l1-8-3-5-5-7c-1-3-3-3-4-1 0 2 2 11 5 18 2 4-2 2-7-3l-5-5v-19l-5-5c-5-4-6-7-7-10-2-7-4-8-5-2l-5 9c-3 3-6 7-7 11l-6 12-4 7 2 3c2 3 6 6 8 6l3-4 18-22c2-2 3 0 2 7l1 8 2 2c-1 2 1 4 6 10 5 4 7 8 7 9l-1 3c0 3-8 11-20 18-8 5-14 10-24 20l-17 15-6 6-6 8-6 7c-2 4-2 4-6 3-7-1-9-1-9 2l-1 7a161 161 0 0 0-5 24c1 3 1 4-1 5-2 3-1 4 3 6 12 4 40 20 42 22 1 1 0 2-1 3l-16 11c-2 1-2 1 1 4l8 11 5 8h-49l-4-5c-6-6-8-10-8-14l4-13c3-9 3-10 2-14v-6c2-4 2-6 0-12-3-7-4-14-3-19v-34l-4 1-34 10c-9 2-9 2-11 0-1-2-2-12 0-12v-1h-3c-8 2-31 0-44-3-6-2-7-2-7 0-1 2-1 2-5 2l-6-3c-2-2-2-2-2 2 1 2 1 3-1 3l-4 1-5 1-15 2c-9 1-12 2-12 3l4 1 7 1 5 1 4-2 3-1c2 0 2 0 1 2l-4 2-3 2c0 1 3 2 5 1l5-1h4l1-1 1 1c0 2 2 2 5 0l1-3 1-3 2 1c0 3 4 2 4 0l2-2v7l-1 44c0 19 0 21-2 20l2 3c3 3 8 14 8 18l-2 4v4l1 8 1 4h-85l-2-5-2-6c0-3 4-7 6-7 3 0 2 4 0 4s-3 1-3 2c0 2 1 2 5 3 5 0 6-1 3-2-1-1-2-4 0-4l3-2c1-1 1-1 3 1 3 3 4 3 4-1l1-4 1 2c-1 2 0 3 2 5 2 1 3 3 2 3h-1c-1 0-2 2-1 3h2l3-2c2 0 2-2 0-3-1 0-1-2 1-4s3-2 2 2l1 2 4 2c3 2 3 3 2 5-1 3-1 3 2 3s3 0 2-1l-1-3-1-3c-2-2-1-7 1-5 2 1 3 1 3-1-2-2 2-3 4 0s6 4 6 1l-3-3c-5-2-11-8-13-12-1-3-3-6-5-7-2-3-3-6-1-6l1 1 3 2c2 1 2 1 1-1l-3-4c-3-3-4-5-2-5l3-3c1-2 2-2 4-2l5 1 4 3c3 2 3 2 3 0l-4-3-4-3c-1-1-2-2-5-2-4 0-11 3-11 4l-2 2-1 3c0 2-2 5-4 5l-2-2-6-5c-4-1-5-3-5-4l2-3c1-2-2-1-7 4l-7 5c-2 0-2 1-2 2 2 8 1 9-7 7h-8c-4 3-2 4 4 3l5 1c1 3-3 6-6 4h-6l-7-1-4-2c-1 1-2 0-2-9 0-15-2-28-4-28h-3l-1-2-2-3-2-1-3-2c-3 0-4-1-5-5 0-3 0-3-2-2h-9c-9 0-19-4-27-11l-6-5 4 7 7 5c10 8 11 8 19 8 7 0 8 1 8 3l-2 4-2 4h-2l1 1v6l-1 6c-2 2-13 4-17 4-10-1-21-9-32-21l-6-7 2-4 4-6c4-3 6-9 5-15 0-4-1-6-3-7-4-2-9-9-12-16-2-7-2-11 2-14 2-2 2-2 6 0 4 1 7 4 7 6l1 3c1 1 1 1 2-1l4-2c3 0 3 0 7 5l6 3 11 3 7 1 3-3 5-5c2-4 3-4 7 1 1 3 4 5 5 5l5-3c7-4 7-3 7 6v8a344 344 0 0 0 49-12c1 0 2 1 3 5l2 9 3 7c0 3 1 4 2 5l4 2h7c3 0 4-1 4-3l-2-3-2-5-2-4-1-4c-1-3-1-4 2-6 3-3 3-3 2-6-2-3-2-3 0-6v-8c-1-4-1-5 1-12 2-5 3-7 6-8l4-5c1-2 1-2 3-2l7 2c9 2 13 5 13 7s0 2-5 2c-6-1-7 0-1 2 3 2 4 2 3 4-2 4-2 4 13 5 15 0 20 1 34 7 6 3 25 8 26 8l-1-12v-12l30-9 17-5c2-1 2-1 0-3l-3-2c-2 0-1-4 0-4 1-1 3 0 4 1h12l3 1c2 0 2-1 2-16l-2-20c0-3 0-4 2-6 3-3 2-5-1-10l-4-10-1-7c-2 0-1-6 0-7 2-2 4-8 7-22l5-15 3-12 4-15c3-10 3-11 2-24l1-15c2-1 2-1 1-3s-2-8-2-30c-1-9-1-9-12-9-8 0-9 0-10-2s4-5 6-5h3l-2-1c-3 0-3-2 0-8l2-6h5c6 0 9-2 7-5l-4-2c-4 0-4-1-2-6l3-6 4-8c2-4 4-5 6-5 1 0 2 0 2 2l1 4c4 1 1 13-5 24-3 5-3 6-3 15 0 10 1 12 7 16 4 2 5 1 2-4l-1-4 1-6-1-7 5-2c5-2 6-4 5-7l-2-15-1-14-4-3c-3-3-6-4-9-5-11-3-13-4-8-8 3-2 6-8 4-10l-1-3c1-1 0-1-1-1s-2 1-2 3c0 1 0 3-2 3-2 2-2 2 0 2 1 1 2 1 1 2 0 3-4 2-7 0-2-1-3-2-6-1l-3 2 7 5v4c-1 3-1 4 1 5l3-2 2-2 1 2c2 4 1 6-4 6-6 0-14-5-15-9 0-2-4-4-10-6-5-1-5 2-1 5l4 3c0 2-6 20-9 25l-3 9 4 1c3 0 3 0 3-2v-3c1-3 24-3 24-1s-1 2-6 2c-8 0-10 1-10 3l-2 2c-2 1 1 2 7 2l7 1-2 5-2 6-2 3-2 4-3 3c-2 0-3 1 0 2 1 1 1 1-1 3-2 3-1 6 6 9l4 3h-9c0 1 1 2 3 2 3 1 3 2-1 4-5 2-6 4-3 6l4 3c1 1 3 2 5 1 3 0 9 3 9 6l-6 12-4-3c-4-3-4-3-4-9l1-5h-3c-3-1-3 0-4 2l-5 17c-1 5-1 6 3 11l3 7c0 3-11 9-12 7l-1-3c0-3-4-11-9-15l-4-6c-2-3-15-8-19-7-1 1-4 0-7-1l-6-3c-4-1-3-12 0-18 2-2 3-2 6-2l7-1c2-2 6-9 6-12l2-3 6-8 8-11c4-4 8-10 8-13 0-2-2-1-4 3l-4 4-5 6-9 12-6 8c0 2-3 1-4-1l-3-8c-2-8-2-8-10-4l-6 3 2-5c3-4 2-7-1-5v-2l2-4c1-3 1-3-2-4h-4c0 1-1 1-2-1-3-2-2-3 1-4 2 0 2-1 2-5l1-6 11-1 11-2c2 0 2 0 2 2l-1 2c-3 2 3 9 6 8 2-1 3-2 3-7l-2-6c-2-1-5-6-5-8 0-1 3 0 4 2l3 2c1 1 2 0 2-3 1-5 2-6 8-6 5-1 5 0 1 2l-3 3 4 4c2 0 5-3 5-6l4-7c2-6 2-10-1-12l-4-3c-1-2-2-2-5-1l-6 1c-2 1-3 0-5-3s-2-3 0-5l2-4c0-3-4-2-5 0-1 3-4 4-11 4-2 0-3 0-3 2l-3 4c-4 4-8 4-19-2l-9-4-4 6-1-3c0-3-3-7-5-5v3l1 6c0 2 1 3 2 3 3 0 9 15 6 16l-1 3c0 4-2 5-6 5l-6 1c-3 3-5 2-5 0s-1-3-3-3c-2-1-2-1-1 1 1 1 0 1-6 1-7 0-8 0-10-3-3-4-3-4-1-7 2-4 3-4 3-1s2 2 4-1c2-2 2-2 1-3l-18-3-6-2-4-2c-2 0-3-1-2-3h4c2 0 3 0 5-4l2-8 1-4c2 0 5-4 5-7l2-2c2 0 12-8 13-11 1-2 2-4 4-4 3-2 3-5 1-8 0-3 2-3 4 0h4c2-2 2-3 1-5-2-2-5-1-10 1l-7 3c-2 0-1-3 1-4l3-3c0-3 6-10 8-10 3 0 2-3-2-5-6-3-6-3-4-4 1-1 50 0 57 1zm160 0c0 1-2 2-4 1v-2c2-1 3-1 4 1zm-918 0-2 2h-4c-2-2-1-3 3-3l3 1zm23 1c0 1 0 2-2 2-3 0-4-2-2-3 1-2 4-1 4 1zm45 3c1 5 0 7-1 5h-6l1 2c1 1 0 2-1 3l-3 4c0 2-1 3-3 3-4 0-5-2-5-10v-5l3-1c4-1 6-2 4-3-2-2-1-3 5-3h6v5zm132-4c3 1 4 4 1 6l-2 3-1 2c-3 0-4-2-4-5 0-2 0-3-4-4h-6c-4 3-4 2-4 0 0-3 0-3 9-3l11 1zm45 0 1 1c-2 0 1 3 3 3 4 0 4 9-1 10-1 1-13-4-13-5 0-2 1-4 3-4 2-1 2-2 2-3-1-3-1-3 1-3l4 1zm49 0c3 1 4 2 3 3h-6c-4 0-5-1-5-3h8zm551 0-1 1c-1 0-2 0-1-1l1-1 1 1zm-158 1c0 2-3 3-4 2-1-2 0-3 2-3s3 0 2 1zm-671 4-1 1-2-2c0-1 2-1 3 1zm-16 2c2 2 2 2 4 1 2-2 3-1 4 3 1 2 4 3 4 1s5-5 8-5c1 0 1 4-1 4-2 1-1 3 1 3s2 1 1 3c0 2 0 3 2 4 3 2 2 3-3 2-4 0-5 1-3 3 3 3 2 3-1 3-3-1-3 0 1 3 6 4 7 4 9 2v-8l4 3 6 3c4 0 8 4 8 8s0 4 6 1l8-4c3 0 5-2 3-4-1-2-1-7 1-8l2 1h7l6-1-1 8-3 1-6 5c-5 5-5 5-4 9l1 8c0 3-1 4-4 3l-8-1c-4-1-4-1-7 2l-3 3c-1 0-2-1-2-3-2-3-2-4 0-8 2-6 1-8-1-8-4-1-4 0-4 5 0 6-1 6-11 5-7 0-7 0-8-6 0-3-4-4-6-2v4c1 4 1 4-1 7l-4 5c-1 1-1 1-3-1l-5-2-3-1-4-3-4-3 8-15 6-3 7-6c6-4 7-8 2-10l-3-3-2-1c-5 0-10-6-7-8 1-1 2-1 3 1zm30 2c0 2 1 3 4 5l8 2c2 0 5 2 5 3l-13-1c-4-3-5-2-5 1l-2 2c-1 0-2-5 0-7 2-1 0-3-2-2-2 0-2 0-1-2 5-6 6-6 6-1zm155 0-2 2c-3 1-3 1-1-1s3-2 3-1zm-9 2-1 1c-2 1-3 1-2-1h3zm-103 2-1 2c0 1-2 2-3 0-2-1 0-3 3-3 1 0 2 0 1 1zm105 4h6c1-2 2-2 3-1 1 2 1 2 4 0 2-1 2-1 2 1l-2 3-1 3c0 2-4 5-7 5l-4-2c-2-2-4-3-4 0s11 8 12 5l2-1c1 1 2 0 2-1 1-1 2-1 4 1 3 2 3 3-1 3l-4 2c-3 2-11 1-15-1l-5-2c-4 0-5-2-3-7l1-6c-2-3 0-4 2-2h3c1-2 1-2 5 0zm-111 0c0 2-4 5-5 5-1-1-1-2 1-5h4zm-82 7c0 2-1 1-4-1v-3c2-1 4 1 4 4zm53 1v3l-2-3v-3l2 3zm239 1 5 1c0 3-2 4-7 3l-4 1-3 1c-2 0-2-1-2-3l1-5c1-2 2-2 3 0l7 2zm-299 1 2 5c2 7 6 8 5 1l1-3c3 1 2 5-1 9-3 3-4 6-2 8 2 1 1 3-1 3s-2-1-2-2c0-2-1-2-2-2l-6 2c-4 0-5 1-3 3s-2 1-5 0c-2-2-2-2-1-3 2-1 5-6 6-11l1-4 1-1h-1c-1 1-2 1-4-2-3-2-3-2-1-4 1-2 2-2 6-2l7 3zm660 1-7 3c-4 0-4-2 1-4 4-1 5-1 6 1zm15 3 2 4-6 1a161 161 0 0 0-4 0c3-1 4-3 1-3s-4-2-2-4c4-2 7-1 9 2zm-705-1h-2l2-1v1zm685 5-2 2c-2 0-3-1-1-3s3-1 3 1zm-383 2-1 1-1-1v-1l1 1zm-299 5c0 4 2 5 6 3l2-3 1-2 1 2v15c1 1 1 3-1 5-2 1-3 2-4 1s1-5 2-5l1-2h-2c-2 2-4 3-4 1-1-1 0-1 2-2l2-1-3-3c-4-4-5-5-5-2l-2 4-3 2h3l3 2c0 2 0 2-3 1-3 0-3-1-3-6s0-6 1-5c2 0 4-3 4-6-1-2 0-3 1-2 1 0 2 1 1 3zm401 3-2 1 1-2c0-2 1-2 1-1v2zm-208 4 2 2-5-3c0-1 1-1 3 1zm404 0-1 3-3 2c-1 3-2 3-5 1s-2-4 2-6c5-2 7-2 7 0zm-456 3c2 2 1 3-2 3-8 2-15 1-15 0l3-4c2-2 3-2 7-1l7 2zm426-1-2 1c-2 0-3-1-1-2 1-1 2-1 3 1zm35 5c0 2 0 2-2 2l-2-3c0-2 0-2 2-2l2 3zm-375 0c2 0 1 3-1 3-3 0-5-2-5-3h6zm381 1-1 1-1-1 1-2 1 2zm-524 4c0 3 0 4-2 4l-3 3-2 3c-2 0-2 1-2 5 1 5 1 5-2 5l-3 1c0 2 1 2 4 2l5 2c2 2 1 2-5 3-4 2-5 2-5 1 1-2-2-3-3-2h-3l-1-4-3-8-2-6 2-3 3-4c0-5 2-6 12-5h9l1 3zm976-3-1 1-2-1 1-1 2 1zm-1019 2 1 1 1 3c1 1 1 4-1 10l-4 10-1 5c0 5 0 5 3 6s4 2 4 5c0 4-1 5-4 2-2-2-3-2-3 0-1 3-3 3-4 0 0-2-2-3-3-3-3-1-3-4 0-9 2-3 2-4 1-6l-1-8c0-4 0-5-3-7l-2-2c0-2 4-5 7-5l4-1c2-2 2-2 5-1zm308 2c2 2 2 2 4 1 2-2 3-2 5 0 1 1 1 1 3-1 1-2 2-2 3 0 2 1 2 2 1 6-1 8-3 9-13 9-8 0-8 0-12-4-5-4-6-9-2-9l4-2c3-3 5-2 7 0zm64 0c1 2 0 7-2 7-4 2-7-4-3-7h5zm-310 9 3 4c4 2 4 6 1 6-2 0-2 0-1-1v-2l-10 3h-7l-1-2c0-2 8-9 12-9l3 1zm321 2-1 1-1-1 1-2 1 2zm-50 3c2 4 2 6 1 10-2 2-3 3-6 1-2-2-6-2-6-1l1 3c2 4-4 8-10 7-4-1-9-3-12-6l-2-2 2-2 2-4c0-2 1-2 6 2 4 4 6 7 4 7v3c1 1 1 1 3-1s2-3 2-5c-1-3 0-4 5-9l7-6 4 3zm451-3-1 2-1-1 1-1h1zm18 5c0 2-2 3-2 0v-3l2 3zm-431 0-2 1-3 2h-4l-5 1v-1l5-3 5-1c2-1 4-1 4 1zm-18 3 1 3c0 2 6 2 11 0l5-1c2 0 2 0 2 6-1 6-3 10-7 11-6 2-7 2-9-5-2-4-3-7-2-8l-2-4c-2-3-2-4 1-2zm232 1c2 1 2 1 0 3l-2 3 3 2 2 3c0 1 0 2 2 2 3 0 5 3 5 7l3 3 1 2c-1 0 0 2 2 3 3 2 4 3 5 2 2-1 2-2 2-4v-2c2 0 3 5 2 8s-4 3-8 0l-7-4c-3-1-6-6-6-9l-2-2c-7-2-10-4-11-8l-3-4c-1-1 0-5 1-6l3 1h4c2-2 2-2 4 0zm-602 3c-1 3-2 4-4 0-1-3-1-3 2-3 2 0 2 0 2 3zm790-1-2 2-7-2 2-1h3c2-1 4-1 4 1zm-803 1-1 1-4 3c-2 2-2 2-3 1l-2-3-1-1-1-1h3l4-1c2-1 6-1 5 1zm6 1-2 2c-2 0-2-1-1-3 1-3 3-2 3 1zm437-2-1 1-1-1 2-1v1zm19 0 1 1-8 2-7-1c0-2 5-3 9-2h5zm256 2-1 1c-2 0-2 0-1-2 0-2 0-2 1-1l1 2zm333-2h-2v-1l2 1zM71 172l-1 2-1-3 1-1 1 2zm736 1-1 2v-4c1-1 2 0 1 2zm70 0-1 2c-2 2-6 1-7-2 0-2 0-2 4-1l4 1zm-169 1-1 1-2-1 2-1 1 1zm-299 4-9 8c-6 6-7 7-6 4 1-4 5-7 10-11 7-4 10-5 5-1zm-267-1c1 1 1 1-1 3l-3 5c-1 3-1 3-6 3-6 0-6-1 1-7 6-5 7-5 9-4zm410 1c0 2-1 3-3 3h-3l2-2c3-4 4-4 4-1zm-96 3c3 4 1 5-7 5l-13 1-18 2c-12 2-14 1-11-3 2-3 14-4 20-2 5 1 5 1 10-1 3-2 7-3 10-3l5-1 4 2zM99 194v13l-4 2c-5 1-16 2-22 1h-4v-26h10l13-2c8-2 7-2 7 12zm858-6c0 1-2 1-3-1l1-1 2 2zm-792 0c3 1 2 3-1 3l-8 1c-6 0-6 0-5-1 2-2 6-4 10-4l4 1zm687 1c1 1 3 3 3 5l3 4c1 0 2 2 1 3v9c0 10-1 12-8 15-4 1-9 1-15-1-3 0-3 2 0 5l1 2-4-1c-2-1-2-2-2-4 1-3 1-4-1-6l-1-7 1-8v-2c-3-1-2-2 2-5l3-4c0-2 5-6 7-6 1 0 1 1-1 3l-5 7-3 5 2 2 5 2h11l4-1c0-2-2-11-5-16-2-3 0-4 2-1zm-729 4v6c0 4-1 5-3 2-1-3-1-7 1-8 2-3 3-2 2 0zm345 3-1 6c-1 2-1 2-2 1v-8c1-3 3-2 3 1zm599 0c0 1-3 1-4-1l2-1 2 2zm-306 5-1 1-1-1 1-2 1 2zm85 0-1 1c-2 0-2-1-1-2l2 1zm-550 3-1 1v-1l1-1v1zm467 3 7-1h4l-10 5c-8 3-9 2-9-4 0-4 0-4 2-2 1 2 2 2 6 2zm185-1-5 1h-5l4-1 4-1 2 1zm15 0-3 1-3-1h6zm113 1-1 1-2-1 2-1 1 1zm-949 3 1 4c-1 2-5-2-5-5s3-3 4 1zm612 0c0 2-1 2-2 2-3 0-4-2-2-3 1-2 4-1 4 1zm87-1v2c-2 1-3 0-3-2h3zm-716 5 2 4v7c-2 3-5 3-5 0l1-2 1-1-1-2-1 2-1 1c-2 0-2-6 0-10s3-3 4 1zm79-3 3 3c0 2 1 4 3 5l3 6c0 3-3 8-5 8l-7-3-11-5c-6-2-8-5-7-9 0-3 2-4 11-5l8-1 2 1zm122 1c3 0 3 3 0 3l-3-1c-3-1-9 0-9 3-1 1-2 2-8 2-9-1-11 1-8 3 1 2 9 4 12 4l1-2c0-2 2-4 3-2 0 3 4 2 6 0 5-4 14-4 14 0l4 4c2 3 3 4 3 8l-2 6-2 3c0 3-5 5-8 5-5-2-7-4-8-9 0-5-2-6-4-3-3 4-5 4-10 1-5-2-7-3-6-1 1 3 5 5 8 5 2 0 2 0 1 2s-5 4-7 3c-3-1-8-9-8-13 0-3-1-4-3-6-3-2-4-7-1-5s4 1 2-2c-1-2-1-2 1-4s2-2 5 0c4 2 6 1 15-3l6-1 4-1 2 1zm877 0-2 3c-2 3-3 3-7 3-6 0-8-2-6-5 1-2 2-2 8-2l7 1zm-498 2c2 2 2 3 1 6-2 3-3 4-6 2-2-2-2-2 0-5 2-4 3-5 5-3zm69 3 3 6c0 2 0 2-2 2s-7-7-7-10c1-2 4-1 6 2zm-46 1c-3 3-6 4-6 1l4-3c6-1 6-1 2 2zm475 7-6 4c-2 0-5-4-4-5l7-3c7-4 9-2 3 4zm-543-5c-4 2-12 3-12 2l12-3h3l-3 1zm169 2 8 5c1 1 2 5 0 5-3 0-15-9-15-12 0-2 1-1 7 2zm-64 0c1 2 1 3-3 3-4 1-5 0-3-3s4-3 6 0zm-423 3-1 1-1-3h1l1 2zm813-1c8 2 13 8 15 16l4 7c1 2 2 4 0 4l-4-3c-3-2-4-2-7-2-4 1-23 7-24 9-1 1 3 2 7 2 3 0 4 0 4-2s3-5 5-5l3 4c1 3 1 3 4 3s4-1 4-3c0-3 2-2 3 2 2 6-1 18-5 23l-5 7-5 4c-3 1-4 1-10-1l-10-5c-4-2-4-2-4-8 0-5 0-6-3-7l-5-6c-1-5 0-7 3-4s4 3 5-5c1-5 0-6-3-3-4 3-5 3-5-1-2-12 12-28 26-28l7 2zm-1040 4-4 1c-3 0-3 0-1-1l4-1c2 0 2 0 1 1zm34 0-6 4-7 5c-1 1-2 2-3 1s-1-1 2-5l5-5h9zm200 1h-1l1-2v2zm856-1-1 1-1-1 1-1 1 1zm19 2 2 2 1 11c0 10 0 10-1 6s-3-6-5-8l-4-4-3 5c-3 4-5 6-7 4-2-1-1-4 2-10l6-7 4-1c3-1 4-1 5 2zm-961 0c2 1 2 3 1 4-2 1-1 2 4 4l8 4c3 4 3 2 0-3-4-5-5-7-3-7 1 0 4 3 4 5l3 3c2 2 2 2 1 7l-1 10-4 13-4 5-7 8c-4 3-11 3-17 0-4-2-6-2-4 1 1 2 10 7 12 7s4 1 3 2c-1 2 1 1 4-2 2-3 4-2 2 2-5 8-11 8-21 0l-8-5-3 3c-1 3-1 3 1 6 3 6 8 9 14 10 10 3 18 0 22-6 2-4 3-7 1-10-1-2-1-3 1-5l6-12 2-4 9 2c15 5 14 4 16 2 2-1 2-2 2-3-4-1-4-2-3-3h3c2 1 3 0 5-2l3-3c0-2 1-2 3-1 1 1 2 0 4-2l3-4 5-1c3 0 4 1 3 2v6c1 5 0 18-1 19l-1 6c-1 4-1 6-4 8l-3 3 2 3c2 2 2 2 1 5-2 3-2 3 0 3 3 1 2 3-1 7l-8 4c-5 0-7 2-4 4h5l5-2-2 4c-2 4-5 6-9 4l-9-1c-5-1-7-1-13 2-13 4-14 5-15 1-1-2-2-3-6-3-5 0-7 1-5 4v5c1 2 1 3 5 3s4 0 2 5l-1 3-5 3c-5 0-6 1-8 6-2 4-2 5-2 17l1 13 1 2c0 1-2 2-8 3-9 2-10 3-3 3 5 0 6 1 6 5l2 3v3c-2 1 2 5 8 9l5 3h-6l-7-1h-8c-6 1-12 0-20-3l-4-1-5-1-5-2c-2 1-3 0-5-1-3-3-4-4-4-1l-1 3c-2 0-3 2-3 4 0 3-2 4-3 1l-5-7-7-13-5-10-6-12c-5-13-6-14-10-11l-3 2c-2 0-8-13-8-15s5-4 11-4l7-1v3l2 3c3-1 12-21 10-22h-9l-8 2-1 3c-1 4-3 5-6 4-5-3-5-11-1-17 2-4 2-4 1-8-2-8-2-16 1-15h25c8-1 9-1 9 5l1 4c2 1 9-5 16-12l11-10 8-5 4-3c4 0 4-7 0-7l-3-1-6-2h-3l1-4-1-4c-2 0-2 1-2 5 0 5 0 5-3 6l-6 2c-4 1-4-2 1-4 4-2 4-5 1-7-1-1-2-3-1-8v-10c-2-1-1-2 3-3l6-1c2-1 2-1 4 2l2 5c0 3 1 3 4 0 2-2 3-2 6-1l8-4 9-5c3-1 3-1 1-2-3 0-4-3-1-6 3-2 7-3 9 0zm607 1-4 3-4 2-3-2-3-2h5l6-1c2-2 3-2 3 0zm-765 3 1 4 3-1c1-2 7-4 7-3s-11 8-13 8l-1-1-1-3c-3-1 0-8 3-8l1 4zm22 0h-6l1-2c2-1 5 1 5 2zm1070 0 3 4 2 4 2 9c2 8 4 21 2 21l-1-2-2-3c-1-2-2-2-4-1s-3 4-1 5l1 4c0 3-1 4-2 4l-3-2v-3c2-1 2-1 1-3v-5c1-1 2-2 1-3v-5c1-2 1-2-1-5l-4-5c-1-3-1-4 1-5l2-4c0-2 1-7 2-6l1 1zm-848 13c1 4-3 4-5 1s-2-7 1-12l3-3v6l1 8zm-145-11 3 1 3 1c0 2-1 2-4 2-6 0-8-1-6-3s3-2 4-1zm651 0 2 2c0 2-3 1-5 0-2-3 0-4 3-2zm-694 2c5 2 4 4-1 4h-6c-2 1-2 1-2-1 0-5 4-6 9-3zm-42 6c-1 1-5 2-5 0 0-1 5-4 6-3l-1 3zm606-2-1 1c-1 0-2 5-1 6 2 2 1 3-1 3l-3-1c-1-2 0-9 1-10 2-1 5-1 5 1zm-537 3v6l-10 1c-8 1-10 1-11-1-2-2-1-6 1-7 3-2 18-1 20 1zm-100 0-1 2c-3 3-4 3-4 1 0-3 1-3 4-4l1 1zm529 3 11 12c9 9 9 9 13 9 7-2 18 3 14 5-1 1-2 2-1 4l-1 2-4 4-6 4c-5 0-39-38-39-43h5c5 0 6 0 8 3zm-494-1-1 1-1-1 1-1 1 1zm729 1-2 1-2-2 2-1 2 2zm-738 0-2 1-2-1 1-1 3 1zm1000 10c-1 5-6 0-6-6v-2l4 3c2 3 3 4 2 5zm-242-3h8c3 0 3 0 3 4l1 14v11l-5 5-5 5h-8l-27-3-1-4 2-11c0-8 2-21 3-22l29 1zm-678 1c1 4-1 6-5 11l-4 4h-16v-14l10-1h9v6c2 1 4-3 3-6l1-2 2 2zm498 2 4 4v3c-1 2-1 2-6-3-3-3-5-5-4-6 1-2 2-1 6 2zm-244 0c4 2 6 7 4 8-1 1-4 0-4-2 0-1-3-5-5-5-2-1-2-3 0-3l5 2zm140 8v11l-1 1-2-11 1-10 2 9zm18-5v7l-3 6c-3 13-4 13-4-1l1-10 2-2c0-3 3-3 4 0zm99 2c2 1 3 2 3 5v7l-1-3c1-2 0-3-1-2-2 1-2 0-4-4l-2-5 5 2zm-324 3 2 3v5c-1 2-6-1-5-3l1-4c0-3 2-4 2-1zm-282 4h-2l-1-3h2l1 3zm600 6-1 1v-1l1-1v1zm-298 4h-1l1-1h1l-1 1zm-192 2-1 2-1-3 1-2 1 3zm683-1-1 1c-2 0-2-1-1-2l2 1zm173 6 4 6 2 4c-1 1-11 0-11-1v-7c0-7 1-7 5-2zm-857 7c-1 1-1 1-1-1s1-4 2-1l-1 2zm951 0c0 2-2 3-3 1l2-3 1 2zm-236 6c6 4 7 4 8 9l2 11 2 6c0 2 1 2 7 2l7-1v6c1 11 0 24-2 29l-2 7c0 5-1 6-4 3l-6-2c-5-1-7-2-5-4l1-15-1 3-4 5-1 2v10c0 10-2 15-6 18-8 4-25-1-31-10-5-7-5-8-2-11 4-5 4-7 3-13l-1-9v-4h-4c-7 0-11-6-10-14 1-3 4-4 7-1l5 4c2 1 2 1 1-1-1-3-1-12 1-16l1-6c0-5 3-9 7-9 2 0 4 0 5-2 4-3 6-4 11-2l11 5zm-228 6-1 1-2-2 1-1 2 2zm-603 6-2 1v-1c1-2 3-2 2 0zm992 1c4 1 4 3 0 3-5 0-7-1-4-3h4zm-991 4-2 1 1-2c2-1 2-1 1 1zm-7 11c1 6 1 9-2 9-1 1-1 0-1-6l1-8 2 5zm557 8-1 5c-3 1-4-1-3-5 1-5 3-5 4 0zm-552 3c-2 3-4 4-4 1l3-3c3-1 3-1 1 2zm1128-2v2c-2 1-5-1-5-2h5zm-127 9c-1 2-2 3-6 4l-3 1 3-3 4-3 3-1-1 2zm118 15h-4l2-1 2 1zm-22 2-2 2h-3l1-2h4zm-719 2v1l-2-1v-2l2 2zm4 8c1 4 0 5-3 5l-3-1v-2c-2-2-1-5 2-6l2-2 2 6zm77-5h-1c0-1 1-2 2-1l-1 1zm585-1 2 2c2 1 3 1 2 4 0 3 0 3-4 2l-2-2-1-4c-1-1 0-3 1-3l2 1zm13 2c-1 1 0 2 1 2l2 2c0 3-4 3-5 0 0 0-1-2-3-2l-2-1 3-2c3-2 4-2 4 1zm-567 4 1 5-2-3c-2-2-3-5-1-6 1-1 1 0 2 4zm637 8 3 4c1 3 3 4 3 2l2-3c1-1 1-1 1 3 0 5-2 14-4 15l-3-8-4-9-7-1c-5 0-9 2-9 6a343 343 0 0 1-8 41h7c5 0 6 0 6-2l4-13c0-5 2-3 5 4 4 11 4 11 9 11 3 0 4 0 4 2s-1 2-5 2c-6 0-9-2-9-5 0-4-2-3-4 1l-1 3-8 1c-9 0-12 0-12-3-1-1 8-44 10-47l4-4c4-1 13-2 16 0zm-894 3-3 1-3 1c-2 2-5 2-5 0s2-3 7-3l4 1zm838 1c1 1 1 1-1 1a577 577 0 0 1-10 2c0-3 6-5 11-3zm-74 10c0 1-5 5-7 5s-1-1 2-4c4-2 5-3 5-1zm-572 7c-1 1-1 1 0 0l1-2-1 2zm-4 13-5 12c0 3-2 6-3 7-2 2-2 2 0-2l2-6 2-6a135 135 0 0 0 7-15l-3 10zm-247-6c4 2 5 4 5 5l-13-8 8 3zm533 3v2c-2 1-7-1-6-2h6zm24 4c-1 1-2 3-4 3-4 2-14 4-15 3-2-1 1-2 7-2l8-3c4-3 5-3 4-1zm131-1v4c1 2 0 2-3 3-4 0-5 0-5-4 0-2 0-3 3-3h5zm-132 13 1 4v7l-1 1-2-2c-1-3-1-12 1-12l1 2zm-325 7 5 5 1 1 2 3 1 10c-1 9-2 12-5 12l-6 3-7 2 6-7c3 0 5-14 3-16h-3c-2 1-2 2-2 4 1 3 1 4-1 5h-4c-2 0-2-1-2-5v-10c-1-4-1-5 1-9 3-6 5-6 11 2zm252 6-6 6c-2-1-2-4-2-6 1-1 7-2 8 0zm3 8-3 6h-3l7-11-1 5zm86 3h-3c-1-1-1-1 1-2s4 1 2 2zm-138 2-8 5-7 5-4 3c-2 1-2 1-1-2 0-3 0-3 8-7 10-5 17-8 12-4zm4 6-1 2c-3 1-2 2 3 3 7 2 7 2 9 6 0 3 2 5 3 5 2 1 1 2-5 7s-10 5-15 2h-8l-9 1-10 2c-6 3-9 2-9-1 0-2 7-6 11-6l3-1 20-18c6-3 7-3 8-2zm-27 10c-2 3-7 6-11 6s-5-1-2-4c3-2 12-6 13-5v3zm-18 17-1 2-1-1 1-1h1zm-162 29c1 1-2 5-2 4l-1-3c-1-2-1-2 1-2l2 1zm39 15c6 2 8 3 9 8l3 8v9l-3 17c0 13 1 20 5 30l8 32h-58l-1-15-1-15-3-2c-3-2-3-3 1-4 3 0 5-3 5-11 0-4 0-5 2-6s2-2 2-6l-2-6c-2-1-3-15-2-16 3-1 8-7 11-13l6-8c2-1 2-2 2-5l1-5 6 3 9 5zm468-2-1 1v-1l1-1v1zm-283 37-3 2-4 2c-1 1-5 2-5 0 0-1 2-3 6-4 4-2 6-1 6 0zm3 4-2 3-2 1 2-3c0-2 2-3 2-1zm504 13c0 7 0 8-2 8l-2-1 4-16v9zm-515-5c0 1-5 3-6 2s3-4 5-4l1 2zm-538 5c-1 6 0 13 3 17l9 14a124 124 0 0 0 16 21l-59 1H68v-44l5 2c4 1 5 1 7 5 3 6 3 6 7 4 3-2 29-10 33-10l3 4 2 6 14 1c16 0 16 0 16-12 0-7 0-10 2-12 2-3 2-2 2 3zm544-3-14 10c-9 5-2-2 8-8 5-3 6-4 6-2zm-38 5c0 1 1 2 3 2l2 1c0 2-3 2-4 1s-3 0-9 2l-8 3-1-2-1-2-3 2c-5 4-7 1-3-3 2-2 4-2 9-2l8-1c3-2 6-2 7 0zm190 2 7 1-1 6c-1 10-2 14-5 16-2 1-2 1-4-1-1-2-1-4 1-6l2-5 1-6-2 1c-2 1-3 2-3 4 0 5 0 6-1 3-1-2-2-4-1-5l-1-4c-2-3-2-5-1-5l8 1zm-383 1v8c-1 4-5 6-17 8-11 2-12 1-14-5-2-7-3-10-2-11h33zm-43 10c0 5 0 11-2 15-1 7-1 12 3 19l2 4a333 333 0 0 1-44-2l2-3 9-10c4-5 6-7 6-9l3-8 2-6c0-2 2-2 8-3 6 0 8-2 8-4-1-2 0-3 1-3s2 4 2 10zm246-4c0 2-15 11-18 11s0-2 8-7 10-6 10-4zm-13 1c-1 2-22 11-23 10-3-1 0-3 12-8 7-3 12-4 11-2zm52 7a1320 1320 0 0 1-15 14c0 2-9 11-12 11-2 0-2-1-1-3l1-2c1-1 3-4 7-6 5-5 8-8 5-8l-8 4-8 3 1-2 3-2 20-9 10-4-3 4zm12 2 1 1c2 0 4 2 2 3-1 1-7 2-9 1s-4 0-8 3c-6 4-9 5-9 4-1-1 2-3 8-8 4-3 5-3 7-2 1 1 2 1 4-1 1-2 4-3 4-1zm43 1h23v4h-2c-2-2-5-3-5-2l-15 1c-9 1-12 0-11-3h10zm-49 8c0 2-1 3-4 5l-9 2 2-2 11-7v2zm38 1c0 2-3 4-4 3v-2c1-2 4-2 4 0zm11 2-2 1v-1h2zm26 2c-1 1-2-1-1-2h1v2zm-73 0c0 6-1 9-5 11-4 3-3 5 3 4l4 1c0 2-2 3-6 2h-6c-3 1-6 1-6-1l2-2 2-3 3-3 2-4c0-2 4-6 6-6l1 1zm-53 10c-7 8-12 10-14 8l-1-1 6-5c6-4 16-10 17-9l-8 7zm41-5c0 1-5 5-8 5l-2 2c-1 2-17 8-19 6l-1-1 15-10c6-3 13-4 15-2zm-56 3c1 1-2 4-8 8l-8 2c-5 0-7-2-2-3l2-1 2-2 8-2c5-3 5-3 6-2z"/><path d="m74 91-4 3c0 1 3 3 4 1l3-1c4-1 5-3 2-4-1-1-3-1-5 1zM95 91l-1 3-1 1c-2 0-2 4-1 4 2 1 3 0 3-2l2-3c1-1 2-4 0-4l-2 1zM350 94l2 1c2-1 2-3 0-3l-2 2zM208 98l1 1 1-1-1-1-1 1zM212 103l-1 1h1l1-2-1 1zM242 104l-2 2c-3 1-2 3 2 4 3 1 3 1 5-1 3-3 2-6-1-7-3 0-3 0-4 2zM338 107c-5 6-4 8 3 4 4-2 5-4 5-6 0-4-4-3-8 2zM254 107c-1 3-1 6 2 4v-6c-1-1-1-1-2 2zM254 117l1 2 1-3-1-1-1 2zM333 118c-1 2 0 3 1 1v-1h-1zM216 119c0 2 4 4 5 3v-3c-1-1-5-2-5 0zM231 120c-1 1-2 2-1 3l-1 2v3c0 1 0 2-2 2-2 1-2 2-2 5l1 5c2 0 4-2 4-5s2-3 4-1c3 3 9 2 18-2 8-4 8-5 5-9-2-1-4-2-11-2s-8 0-10 2l-3 2v-1l1-3c1-2 1-2-3-1zM272 123c-2 1-2 1-1 2h6c1-3-2-4-5-2zM385 136c-1 1-1 2 1 2l1-2c0-1-1-2-2 0zM211 151c1 2 1 2-1 3-4 3-4 3-1 5 6 3 1 4-6 1-3-1-3 3 1 6 4 5 10 3 10-2l2-5c2-2 1-5-1-6l-2-2-2-1v1zM300 153l-3 4c-3 2-2 3 4 4 5 0 5 2 1 3s-6 2-2 4c4 1 6 1 5-2 0-2 0-2 2-3 3-1 2-2-2-6l-3-3 1-1-2-1-1 1zM237 159l-4 6c-1 2-1 3 1 6 2 5 4 6 3 3s2-6 5-7c2-1 3-4 1-6l-1-3c-1-5-3-5-5 1zm1 6-1 1v-1l1-1v1zM348 159l-3 1c-3 0-4 1-1 3l3 5 3 5 1-8-1-8-2 2zM289 163l4 3c2-1 0-4-2-4-2-1-2 0-2 1zM321 174l2 4 3 4 2 1c1 0 2-1 2-4 0-4-1-4-4-6-4-1-4-1-5 1zM305 175l2 1 1-1-1-2-2 2zM175 175l1 1 2-1-1-1-2 1zM242 176c-1 2-1 4 1 3v-5l-2 2zM179 179l2 1c2-1 2-3 0-3l-2 2zM348 189c-1 2 3 4 7 4 2 0 3-1 3-2 0-2 0-2-3-2h-4c0-2-2-2-3 0zM223 190l1 1v-1l-1-1v1zM234 191c-2 1-4 4-4 7l-2 5c-3 2-2 3 2 3 3 0 4-1 4-4 1-5 2-7 4-7l2-2c0-3-2-4-6-2zM244 193c-4 2-4 3-1 5 2 1 3 1 4-1s2-5 0-5l-3 1zM304 197c-1 1 1 3 2 3 3-1 2-4 0-4l-2 1zM161 206l-3 2c-1 1-2 1 3 1 5 1 7 0 7-2s-1-2-7-1zM433 227c-3 1-2 3 0 2l2-2h-2zM427 232c1 2 2 2 3 0l-1-2-2 2zM437 233l1 1 2-1c1-1 0-1-1-1l-2 1zM102 260c-4 1-5 3-1 4 5 0 8-1 8-3s-1-2-7-1zM335 270c-3 3-1 3 8 2 2 0 1-2-1-2l-3-1c0-2-3-1-4 1zM95 271l3 3 4 3 2 2 6-8h-6l-7-1c-2-1-2-1-2 1zM113 283c-2 3-3 3-8 3l-9-2c-6-2-7-2-4 1 2 3 8 6 12 6 7 1 14-4 14-9 0-4-1-4-5 1zM416 300c-2 1-1 2 1 2l2-1c-1-2-2-2-3-1zM421 300c-1 1 2 2 3 2l1-2h-4zM417 308c-7 2-6 3 3 3l8-1-1-2-3-1-7 1zM387 316l2 2 1-2-2-2-1 2zM101 398c1 2 0 3-1 4v3c2 2 7 4 8 3l-2-3c-5-2-5-3-1-3 2 0 4 1 4 3l2 2 4-3c2-3 4-4 5-3 1 0 2-1 2-3v-3l-6 1c-6 2-7 2-11 1l-5-2 1 3zM322 404c-1 1-1 1 2 1l4-1c1-2 1-2-2-2l-4 2zM424 406l1 2h3l-2-2h-2zM342 411c-2 2-2 5 0 5l6-6c0-2-4-1-6 1zM321 414l-6 3c-2 2 1 2 6 0l7-1c3-1 4-1 4-3s0-2-3-2l-8 3zM272 419l2 1 1-1-1-1-2 1zM341 420l1 1 1-1-1-1-1 1zM360 420c-1 1 1 2 4 2l2-1c-1-2-6-3-6-1zM326 421c-5 1-5 3-1 3l5-1 2-1 3-1h-9zM151 425c0 2 0 3 1 2v-5c-1-1-1 0-1 3zM446 424h2l-2-1v1zM455 424h1l1-1h-1l-1 1zM429 431v1l1-1v-1l-1 1zM439 434h1l1-1h-1l-1 1zM73 435c-1 2-2 5 0 5 2 1 3-3 2-5h-2zM149 437v8c1 10 3 15 8 15h2l-2-2c-2-3-3-7-5-16-1-7-2-9-3-5zM224 438l4 4 4 3 2 1-4-5c-6-5-6-6-6-3zM452 437c-5 1-7 3-5 4h3l4-1c2 0 3-1 3-2 0-2 0-2-5-1zM248 442c-1 1-1 2 1 1l1-1h-2zM435 443l1 1 1-1-1-1-1 1zM332 445l3 2c2 1 2 1 1-1l-2-1h-2zM195 459c-1 12-2 15-6 20-2 2-2 5 1 5l1 1-6 9c-2 2-3 3-2 4s1 1 3-2l5-7 5-6 8-6a298 298 0 0 0 39-29c0-2-4 0-6 3-3 2-7 3-10 2l-9-1a101 101 0 0 1-20-4l-3-1v12zM340 450l3 1-1-2-3-1 1 2zM129 469c-2 0-2 1-1 2 2 1 5 1 5-2h-4zM133 475l-6 2-2 1c-1 1 0 1 2 1s3 1 5 4l5 3c1 0 4 3 4 6 0 2 3 6 5 6s2-4 0-7l-3-7c-1-5-3-6-5-4-1 2-4 0-4-2l2-2 5-3 3-1h-4l-7 2zM122 487h1v-2l-1 2zM112 493v1l1-1v-1l-2 1zM153 494l-1 4v4c2 3 3 2 3-1l2-4c3-2 3-4 0-4-2-1-3 0-4 1zM138 501l-3 1-3 1-6 1-6 3c0 2 2 3 5 2 2-1 4-2 5-1l4-2c3-3 4-3 6-2s2 1 2-1c-1-3-3-4-5-2zM90 502v1l2-1-1-1-2 1zM106 509l1 1 1-1-1-2-1 2zM181 509v1l1-1v-2l-1 2zM89 514h4c1-1 0-1-2-1s-3 0-2 1zM162 534v2c1 1 1 1 1-1 1-2 0-3-1-1zM284 549c-1 2 1 5 3 4s1-5-1-6-2 0-2 2zM297 548l-2 2c1 2 5 1 5-1s0-2-3-1zM277 549l-1 2 4-2h-3zM277 555c1 2 4 4 5 3l-1-3h-4zM331 556c-1 1-1 1 2 1l3-1-2-2-3 2zM324 559l-1 3c0 4 2 3 3-1 0-3-1-4-2-2zM314 561l-2 5c0 4 2 4 4-1 1-4 0-6-2-4zM301 562c-4 1-4 2-5 7 0 5 1 6 4 4 1-2 3 0 3 3 0 5-3 7-5 4-1-2-3-1-2 2 0 2 3 3 5 3 3-2 5-7 4-10 0-4-1-5-5-5-3 0-2-4 2-5 4-2 3-4-1-3zM284 567l1 3 1 8 1 8c1 0 2-2 1-8v-11c0-2-3-3-4 0zM268 568v2c1 1 1 1 1-1s0-3-1-1zM322 571c-3 0-3 3 0 4 2 1 3 0 4-1 2-4 2-4-4-3zM315 573l-3 1c-4-1-4 3-1 4l3 1c0 2 2 1 2-2 1-4 0-6-2-4zM268 576l-1 7 1 4 1-4c0-5 2-8 6-6 2 0 2 0 2-2s0-2-2-1h-5c-2-1-2-1-2 2zM323 585l-7 2c-3 0-8 3-8 5 1 2 6 3 7 1 0-1 1-2 2-1 2 0 6-3 6-5 0-3 1-3 3 0 2 2 2 2 4 1 3-1 3-3 0-2-2 0-2 0-1-2 0-3-2-3-7 1zM276 587l1 1 1-1-1-2-1 2zM291 593v4c1 0 3-2 3-5s-2-3-3 1zM274 604h2l-2-1v1zM334 613c-1 2 0 3 3 3 1-1 1-1-1-2-1-2-2-2-3-1zM368 615c-2 2-2 4 1 4 1-1 3 0 4 1l2 1c2-1 1-2-1-3-1 0-2-1-2-3 0-3-2-3-4 0zM343 616l-1 3v1l2-1h6v-1l-3-2c-3-2-4-2-4 0zM334 621c-2 1-1 2 1 2 3-1 4-3 1-3l-2 1zM344 623l2 2 1-1-2-2-1 1zM373 624l1 1 1-2h-1l-1 1zM333 628h1v-2l-1 2zM379 632v1l1-1v-1l-1 1zM686 87c-2 1-1 4 1 4 1 1 2 0 2-1 0-2-2-4-3-3zM607 93l-7 4c-2 1-3 2-2 3 2 2 5 1 5-1h3c1 0 2 0 1-1l3-3c3-1 4-2 2-4-1-1-3 0-5 1zM488 93l-6 2-2 1c0 1 0 2 2 2l4 1 3 1h5c2 1 2 1 1 4-2 7-4 9-5 7l-2-1v4c2 1 0 4-1 4l-3-2c-1-1-4-2-4 0 0 1 6 7 8 7 1 0 2-2 2-5 0-2 5-3 8-2l1-3 2-4 1-3v-5c1-2 1-2-2-1h-4l1-4c0-3 0-4-2-4-1-1-4 0-7 1zM665 93l2 2 2-1-2-2-2 1zM700 96c-1 1 1 4 3 4s2-2 1-4c-2-3-4-3-4 0zM568 99c-5 3-5 5 0 4 4 0 5 1 2 3s-1 3 2 2c2-1 3-1 5 3l5 2c3 0 4 0 5-2 0-1 1-2 3-2s3-1 1-3-2-3-1-3c2 0 5-4 4-5-1-2-4-1-6 1-2 3-6 2-10-1-5-3-6-3-10 1z"/><path d="M463 103c-2 2-2 5 0 5l3 2c1 2 1 2 3 1l1-3c-1-2-1-2 1-2l2 2c0 3 3 3 6 2 3-3 3-4 0-7-2-2-4-2-9-2-4 0-6 0-7 2zM694 102c0 2 3 5 5 5s4-2 4-4l-3-1h-6zM451 110c-2 7-2 11 1 11l4 2c2 3 4 3 5 0v-4c-2-1-4-8-4-14l-2-3-4 8zM620 104c-1 1 0 2 3 4s5 2 5 0c0-3-7-7-8-4zM606 107v1l1-1v-1l-1 1zM595 112l2 2c2 1 2 10-1 14-2 3-2 3-1 4 2 1 3 1 3-2 1-3 3-4 6-1h3c1-1 2-2 1-3 0-2 3-4 4-2v1c-2 0-1 4 0 4 2 1 4-1 3-3l2-3c3-2 2-4-1-6s-8-2-10 1h-5v-4c2-2 2-2 0-3-3-1-6-1-6 1zM615 111v2h9l-2-1-2-1h-5z"/><path d="m583 121-7 8c-1 3-4 3-5-1-2-6-12-8-19-4-6 3-8 7-6 14l2 5 2-6c0-6 1-9 4-9l3-2h3l4 2c6 0 11 10 8 21v6c2 2 9 1 14-1 11-5 16-14 10-16-2 0-5-10-4-14 0-3-1-9-3-9l-6 6zM632 117c1 2 6 4 6 3s-4-4-6-4v1zM702 118h2l-2-1v1zM718 123c0 7-1 9-4 6s-7-1-7 3c0 3 1 3 4 3 2 0 2 0 1 2 0 2 3 4 7 5l3 1v-14c2-3 0-10-3-11-1-1-1 0-1 5zM677 123c-1 1 1 5 2 5 2-1 1-5 0-5h-2zM495 128l1 1 1-1-1-2-1 2zM771 134l-2 2 2 1c3 2 3 2 5-1 2-4 0-6-5-2z"/><path d="M565 135c0 2 1 4 3 4l1-2c-1-3-3-4-4-2zM556 136c-2 1-2 2 0 3 2 2 2 2 3 0 1-3-1-5-3-3zM610 137c-2 2-2 2 1 3 2 1 2 1 3-1l-2-4-2 2zM705 137l2 4c2 3 1 4-1 4-2-1-3-1-3 1l1 2c2 1 7-1 8-3 1-3 1-3-2-7-4-3-5-4-5-1zM505 139c-3 2-4 4-2 5l3 6 3 6 2 2 2 2c1 0 2-3 0-4l1-3c1-2 1-3-1-9l-3-7-5 2zM700 141l2 2 1-1-2-2-1 1zM772 141l-5 1c-2-1-2 0-2 1 1 3-1 3-6 0-3-2-6-3-6-1l14 11c1 0 3-1 4-5l2-5 1-3-2 1zM603 143c0 2 4 5 7 5 2 0 2 0 2-2s-1-2-3-2l-3-1h-3zM562 146l2 1 1-1-1-1-2 1zM563 149l-3 2c0 1 7 1 8-1 0-1-2-2-5-1zM698 149l-5 1h-4c-1 1 1 3 3 3 3 0 4 1 5 3l3 2 3-8-5-1zM608 151c-4 1-5 2-2 3s9 0 8-2-2-2-6-1zM716 151v1l1-1v-1l-1 1zM708 152v5l3-2c2-3 2-3 0-3h-3zM554 156l10 11c2 0 4-3 4-7s0-4-2-4c-6 2-7 2-10 1l-2-2zm12 7-3 1c-1-1-1-1 1-3 2-1 4 0 2 2zM690 157l2 2 2-1-2-2-2 1zM640 158c2 0 1 4-1 4-3 1-2 3 2 3l9-1c1 0-1-4-3-4l-1-2-4-1c-2 0-3 0-2 1zM509 164c-1 1-1 2 1 2l1-2c0-1-1-2-2 0zM653 165l2 2 4 2c1 3 2 1 1-1-1-4-4-5-7-3zM519 175v1c2 1 3 0 1-1h-1zM535 183l2 3c3 0 2-2 0-4-2-1-2-1-2 1zM518 189c-3 6-3 6-1 6s8-6 8-8-3-4-4-4l-3 6zM757 185c-2 1-3 2-3 4s0 2 4 1l5-1-3-5-3 1zM800 191c-4 2-4 4-1 4l4-2c0-3 0-3-3-2zM676 196l2 3c2 1 2 1 1-2-2-2-3-3-3-1zM655 203c0 2 1 3 2 3l1-1-1-3c-2-1-2-1-2 1zM806 202v1l2-1h-2zM804 207c-3 1 1 3 4 2 3 0 3-3 0-3l-4 1zM653 208l-1 1h1l1-2-1 1zM518 214c-7 2-8 2-12 7-5 6-7 9-8 18l1 6c12 4 13 4 17 3 6-3 7-2 8 1 1 4 4 6 8 6 2 0 3-1 5-3 2-5 4-5 5-1 3 7 11 5 12-3 1-3 0-4-1-5-3-3-8-4-11-2h-5c-5-2-8-2-11-1-3 2-12 4-12 2l9-6c3 0 6-2 7-3 1-2 12-1 14 1l3 1c3-1 3-4 1-7-2-1-3-4-4-6-1-4-2-5-6-6-8-4-12-4-20-2zm19 30c1 2-2 3-6 2-5 0-5 0-5-3l5-1 5 2zm15 1c0 1-2 2-5 2l-4-1c0-2 1-3 5-3l4 2zM775 245c-2 0-3 2-4 3s-1 1 4 1c6-1 7-1 6-4h-6zM789 247l1 1 1-1-1-1-1 1zM750 248h-5c-4 0-4 2 0 3 3 1 7 0 7-2s-2-3-3-1zM717 249l2 2 2 4 1 3 1-3a44 44 0 0 1 0-6h-6zM786 253l2 3v-5l-2 2zM483 256l7 3c1 0 0-3-2-3l-5-1zM496 260c-3 5-3 10 0 11 1 1 2 1 3-1l4-1c2 1 2 0 2-2 0-3-5-12-6-12l-3 5z"/><path d="M537 256c-1 1 1 2 4 2 2 0 3-1 0-2h-4zM744 256c-3 0-4 1-5 2h2c3 0 5 1 3 2-1 1-1 3 1 3 2 1 4 0 4-1l3-3 2-3h-10zM771 257c-2 1-2 1 1 3l4 2 5-5h-10zM549 261l3 1 3-1h-6zM532 264c-1 1-1 1 1 1 3 0 5 1 5 3l3 1 3 1h1l1-4v-3l-7-1c-4 0-6 0-7 2zM481 270l1 2 1-1-1-1h-1zM767 286l1 1h1l-1-1h-1zM567 288c-1 1-1 2 1 2l1-1-2-1zM654 290l1 1 1-1-1-1-1 1zM568 294c-2 1-2 2-1 4v5l1 3 1-1 2-4c2-3 3-9 1-9l-4 2zM553 294c0 3 1 5 3 5v-5h-3zM647 297l-2 5-1 2-1-3c0-4-2-4-3-1l-3 8c-2 4-2 7-2 15 0 11 0 13 3 13 1 0 3-3 1-4l-1-1 1-1 4-2c4-2 6-3 6-1l-10 13c-3 5-3 7 1 7 3 0 5-1 9-6 3-3 7-7 8-10 3-4 3-4 2-9-1-8-8-27-9-27l-3 2zm0 20 5 2 1 1c-2 2-7 0-10-3l-3-3c0-1 3 0 7 3zm-5 4-2 3c-2 1-2 1-2-1l1-3 3 1zM762 312v4l5-4h-5zM809 317c1 2 6 2 6 0l-4-1c-2 0-3 0-2 1zM553 324l2 2c2 0 2 0 1-1 0-2-3-3-3-1zM801 327c2 2 7 3 7 1l-5-2c-3-1-3-1-2 1zM551 328c-1 1-1 2 1 2l1-1-2-1zM777 332l3 1c4-1 4-3 0-3-2 0-3 0-3 2zM770 343l-1 6c-1 1-1 1 1 2 2 3 6 2 7 0l3-2 3-1c1-1-2-4-5-4l-4-3-3-3-1 5zM541 354v1l2-1v-2l-2 2zM661 356l1 1 1-1-1-1-1 1zM646 358c0 1 2 1 3-1l-1-1-2 2zM654 357c-1 1 0 2 1 1v-2l-1 1zM787 361l2 3c2 3 4 1 2-2s-4-4-4-1zM726 365l-2 2c0 2 1 2 3 0s2-3-1-2zM585 370v2c0 1 2 1 2-1l1-1 1-1c0-2-2-1-4 1zM635 371l-7 4c-4 3-14 6-20 6s-5 4 1 6c8 2 15 0 15-4 0-3 2-2 3 0 0 3 4 4 7 4 5-1 6-3 6-7 0-6 1-8 5-6h4c-1-4-9-5-14-3zM516 373h2l-2-1v1zM789 375c-2 1-2 2-1 3 1 2 6-1 6-4s-2-2-5 1zM724 374l-3 2c0 1 4 3 7 2l3 1h2l1-4c0-2 0-2-4-2l-6 1zM587 376l-3 1-2 1-1 2 1 2 7 4 4 3 1-2c1-3 0-8-1-10l-6-1zm5 4c0 1-2 2-3 1l1-2 2 1zM744 376c-1 2 0 3 3 3l3 1h10l-2-2c-2-3-7-4-9-2h-6zM665 378c-3 1-4 3-1 3l6-2 5-3h-3l-7 2zM541 378c-2 2 0 2 2 1v-2l-2 1zM526 383h4c1-1 1-1-1-1l-3 1zM672 386l-11 2h-19l-3 3v5l-1 3c-1 1-3 4-3 7-1 3-3 6-5 7-3 2-3 4 0 4l2 1 6 1 10 2 7 2c2-1 2 0 2 3 0 2 3 3 5 3 2-1 3-3 1-4-2-2-1-4 1-4 3-1 2-4 0-5-2 0-2 0-2 2s-2 3-3 0l-2-1-1 2-2 1c-2 0-1-3 1-4l3-6c2-5 2-5 4-3 1 1 1 1 3-1 3-3 4-4 4-1 1 2 0 4-3 4l-2 2 3 1 3-1v5c-1 7 1 9 4 9 2 0 3-1 4-3 2-5 5-5 4-1-1 5-5 10-8 10l-2-1c1-3-3-4-5-1-1 3-1 3 4 4 3 0 5 1 6 3 2 2 6 3 8 1l2-2c2-1 2-1-1-2-4-2-4-4 1-11l5-12 1-6c-7-3-8-4-10-9l-2-7c-1-3-2-3-9-2zm0 14-1 1-2-1c0-1 1-2 2-1l1 1zm-18 4c1 3 1 3-1 3-3-1-4-3-4-5 1-3 3-2 5 2zm-5 11c0 1-3 3-4 2s1-3 3-3l1 1zm32 18-1 1-2-1 2-1 1 1zM734 397c0 1 10 2 11 1 4-1 2-2-5-2l-6 1zM581 398c0 3 6 13 7 13 2 0 0-8-2-11-2-2-5-3-5-2zM614 404l2 1 2-1-3-1-1 1zM623 404c-1 1 0 2 3 2l4-1c0-2-6-3-7-1zM735 409c-7 0-8 1-8 2s1 2 5 2l9 1c4 1 8 0 9-2v-2c-1-1-7-2-15-1zM602 415c0 3 6 6 12 8 2 1 2 1 0 3-2 3-2 3 0 4s2 0 5-4c5-6 5-7 1-6-3 0-14-3-16-5h-2zM626 435l1 1 1-1-1-2-1 2zM620 446c-1 2-1 2 1 1l2-1c0-2-2-1-3 0zM555 462c0 2 2 4 4 4s1-2-2-4h-2zM619 465l-1 2 4-1h3l-3-2c-1-1-2-1-3 1zM572 467l-4 3c0 2 1 1 6-2s4-4-2-1zM551 472l-1 5c0 2 0 3-2 4l-6-1h-3c0 2-3 4-13 13-5 5-6 5-10 4h-4l11 11c10 10 11 11 18 14s8 3 13 2l5-2c1-1-1-9-4-23l-2-10c-2-6-1-8 1-3 1 2 2 3 3 2h2c2 0 2 0 1-1-1-3 3-2 8 1l5 3c2 0 1-2-2-4l-4-3 7-1c8 0 7-1-3-2l-4-3 7-2c1-1 0-1-4-1-5 1-7 0-8-1h-3c-2 1-5 1-5-1 0-3-1-3-3-1zM619 473c1 2 3 3 3 0l-2-2c-2 0-2 0-1 2z"/><path d="m557 492 2 4c2 2 8 4 9 3l4 1h3c0-2-1-3-5-3s-12-4-12-6c-1-1-1-1-1 1zM601 494c-2 1-2 1-1 3 4 2 8 1 6-3 0-2-3-3-5 0zM591 495l4 1 3-1-3-1-4 1zM568 505c-7 1-6 3 1 4 6 1 7 0 7-3-1-2-2-2-8-1zM591 507v1l1-1v-1l-1 1zM597 508l2 3h2c0-2-1-5-3-5l-1 2zM592 513l3 1-4-3 1 2zM565 539l3 1 2-1-3-1-2 1zM560 545l4 1c4 0 3-2-1-2l-3 1zM572 545c-1 0 0 2 2 2l1-1c0-2-1-2-3-1zM584 548l1 1 1-1-2-1v1zM571 551c-3 1-7 5-7 6 0 2 3 1 7-1 4-3 4-7 0-5zM560 554l-1 1h1l1-1h-1zM580 559l2 1 1-1-3-1-1 1zM572 603l1 3 1 3 1-3 2-3h-5zM989 87c-1 1 1 1 8 1 8 0 8 0 4-1h-12zM874 89l2 1 1-1-1-1-2 1zM881 90c-2 1-1 3 2 6l5 3c2 0 3 2 1 4-1 2-2 2-7 0-3-1-6-2-7-4-2-3-3-3-5 0l-7 4-7 5c-6 8-10 15-10 17s9 14 14 19l7 7c1 3 3 4 5 5 5 1 5 1 8-4 3-4 5-10 5-14 0-2 1-3 4-5l6-1c3 0 3-1 1-3h-9l2-3c3 0 3-3 1-5-2-3-1-7 3-11l4-4 1 4c0 4 2 8 4 7l1-7c0-5-1-5-5-9l-6-3-1-2c2-5 2-4-2-4l-6-1-2-1zm-13 23-4 2c-1-1 1-3 3-3l1 1zm11 2v3l2 1 2 1-16 8c-2 0-2-1 3-4l5-3-2-3-2-3c1-3 7-3 8 0zm7 17-1 1-1-1 2-1v1zm-25 2-1 2-2-2 1-2 2 2zm13 1c2 0 0 2-2 2-3 0-6-2-6-3 1-1 4-1 8 1zm-11 4-1 1-1-1 1-1 1 1zm16 4-2 2-2-2 2-1 2 1zM1088 98l2 1 2-1-2-1-2 1zM1102 99l1 1 1-2-1-1-1 2zM1123 99l2 1 2-1-2-1-2 1zM1143 100l2 1 2-1-2-2-2 2zM1162 99c-1 1 2 2 4 2l1-2h-5zM1182 100c0 2 3 3 5 1 1-2 1-3-3-3l-2 2zM1048 100c-1 2 0 3 1 1v-1h-2zM1172 100h3c1-1 0-1-2-1-1 0-2 0-1 1zM1177 100h1l1-1h-1l-1 1zM1190 100h2c1-1 1-1-1-1s-2 0-1 1zM851 103h3l-3-2v2zM1054 111c-1 1-1 1 1 1l1-1c0-2 0-2-2 0zM840 112c2 3 3 3 6 2l3-1-3-2-5-1c-2 0-2 0-1 2zM1124 112c-4 1-10 9-10 12 0 2 4 7 5 7l3-2c1-1 2-2 4-1l2 2c0 2 3 1 5-2l6-4c4-2 5-3 3-6-2-2-5-2-7 0-2 1-5 0-5-2s2-3 4-1c1 2 3 0 2-2-1-1-8-2-12-1zM1043 114c0 2 7 8 9 8 1 0 4-4 4-6h-4l-5-1c-2-2-4-3-4-1zM842 119l-6 3-4 3c1 2 10 3 10 1l2-5c2-3 2-4 1-4l-4 2zM944 121c-4 2-7 7-9 13-1 6 0 15 2 15l10-5c2-3 10-2 15 1 3 2 6 2 6-1l2-4c2-5 1-10-4-15-2-3-3-4-8-4l-8-1c-2-1-2-1-6 1zm21 19c0 1-2 2-5 1-2-2-3-3 0-5 1-1 2-1 3 1l2 3z"/><path d="m894 122 1 1 1-1-2-1-1 1zM1202 128l-1 4-4-2h-4l-6 4-10 6c-3 2-5 3-11 4l-8 1v4c0 3-1 5-3 7-3 4-2 5 2 3l14-4c12-3 11-3 19-10l10-7c3-2 4-7 2-11l-1-4 1 5zM823 128v2c0 1 4 2 4 0 0-1-3-3-4-2zM1060 131l1 1 1-1-1-1-1 1zM1070 135v7c1 2 5 3 5 1l-1-1c-1 0-2-3-1-5v-5c-2-3-3-3-3 3zM830 132c0 1 7 7 9 7 2-1 1-4-3-6s-6-2-6-1zM1063 137l1 1 2-1-1-1-2 1zM1203 138l1 1h1l-1-2-1 1zM822 139v1l1-1v-1l-1 1zM842 142l1 2 1-2c1-1 0-1-1-2l-1 2zM1144 143h3c1-1 0-1-2-1-1 0-2 0-1 1zM1150 142l3 1h3l-3-1h-3zM1198 143l-2 2-3 2-3 3 11-7v-1l-3 1zM1091 145h2l-2-1v1zM814 152l-6 6 2 2c1 1 2 1 3-1l3-2 2-3c0-2 2-3 3-4l2-2c0-2-3-1-9 4zM835 150l-1 2c-1 1-2 7 0 7 2 1 3-1 3-6 1-4-1-6-2-3zM997 154l1 2 3 3 1 3 3-3 2-4-5-2-5 1zM817 159c-1 3-1 5 2 4 1 0 2-5 0-5l-2 1zM941 162h2l-2-1v1zM1000 178l-3 4c-1 1-1 1 2 4 3 5 4 5 6 1 2-2 2-3 1-6-2-5-4-6-6-3zM1153 189c-3 0-2 2 1 3s3 1 4-2c1-2 0-2-5-1zM1151 195v1h1c0-2-1-3-1-1zM905 198c1 2 3 2 3-1l-2-1c-2 0-2 0-1 2zM1044 198l-1 2c1 1 4-1 5-3 0-2-2-1-4 0zM931 206v2h1v-4l-1 2zM897 207l1 1v-1l-1-1-1 1zM1000 235l-3 3c-3 2-2 3 2 4 6 1 7 0 6-4-2-4-3-6-5-4zM986 237c-3 3 0 7 4 7 3-1 4-4 1-4-2 0-2 0-2-2s-1-3-3-1zM982 245l1 1v-1l-1-1-1 1zM1073 255c0 2 1 3 2 2l-1-3-1 1zM911 265l-1 2 3-2h-2zM907 279c-1 1 1 5 2 5 2 0 4-3 3-5h-5zM922 285l1 1h3l1-1-3-1-2 1zM1000 287c0 2 1 3 3 3s2 0 1-2c-2-4-4-4-4-1zM1171 290h1l1-1-1-1-1 2zM1125 312l3 3 3 2-1-2c-2-4-5-5-5-3zM1180 312c-2 1-3 3-1 3 3 0 5-1 5-3h-4zM1186 315c-1 1 1 2 2 1l-1-2-1 1zM1104 322l5 3 3 2 1 1c2 0 0-2-5-5-4-3-5-3-4-1zM1123 322l2 1-1-2c-2-1-2-1-1 1zM1057 322l1 1 1-1-1-1-1 1zM1063 323c-1 1 0 1 1 1l2-1-2-1-1 1zM1146 343l4 3c2 2 3 2 3 1l-4-3c-2-2-3-2-3-1zM1145 351l1 1v-1l-1-1v1zM1022 367c0 2 2 4 2 2v-3c-2-1-2-1-2 1zM1082 427h1v-2l-1 2zM1136 432c-2 1-2 1-1 2l4-1c2-2 0-3-3-1zM1133 442l-8 2c-8 1-5 2 5 2 9-1 10-1 10-3s-1-2-8-1zM1003 445l2 4c2 2 2 2 5 1 4-2 4-5 0-4l-4-1h-3zM1132 451c-2 0-2 2-1 2h3l2-2h-4zM1194 456l1 1c1-1 1-2-1-2l-1 1zM1189 460c-1 1 0 1 1 1 2 0 3-1 1-1h-2zM1193 463l1 1c2-1 2-3 1-3l-2 2zM963 468l-1 8v2c4 0 7-8 4-13-2-3-3-2-3 3zM990 465v1l1-1v-1l-1 1zM944 468h1v-2l-1 2zM1189 468l1 1 1-2h-1l-1 1zM798 471l2 1 1-1-3-1-1 1zM911 477v1h1v-1h-1zM1191 478c-7 3-8 5-5 9 1 1 2 1 4-1 4-2 4-1 4 18v16h9v-44h-4l-8 2zM903 478c-1 1 0 3 1 3v-3h-1zM1114 478l1 2c1 1 1 1 1-1l-1-2-1 1zM896 480l1 1 1-1-1-2-1 2zM939 480c-2 2-1 3 1 3s3-1 3-2c0-2-2-3-4-1zM897 484l2 2c3 0 2-2 0-3s-2-1-2 1zM934 483v2l2-1c1-2-1-3-2-1zM925 485c-2 1-1 3 1 3s2 0 2-2c0-1-2-2-3-1zM915 489c-1 1 0 1 1 1l2-1c-1-2-3-2-3 0zM905 491l-1 2 4-2h-3zM1181 495l1 1v-1l-1-1v1zM1160 497c-1 1 0 1 1 1 2 0 3-1 1-1h-2zM1175 499l-1 1c3 0 5-1 5-2h-4zM1169 502c-2 1-3 2-3 4 0 1 0 2-1 1-1-2-2-1-2 2 0 1 0 2-1 1l-1 1-2 3v1c3 0 6-3 11-9 3-5 3-5-1-4zm-1 4h-1l1-2v2zM790 503c-1 1-1 2 2 3 2 0 2 0 2-2-1-2-4-3-5-1zM802 504v1l1-1v-1l-1 1zM812 506v1l2 2 3 1c2-2 1-3-1-5-2-1-3-1-4 1zM820 506c-1 1 2 3 4 3l2 1h1c1-2 4-3 6 0l4 1c2-1 2-1-1-3l-7-2-6-1-3 1zM941 507l2 1c1 0 2 0 1-1l-2-2-1 2zM795 508l1 1 1-1-1-1-1 1zM968 511l-2 3v4l1-2 1-2 1-3c-1-2-1-2-1 0zM962 512c-1 1 0 1 1 1l1-1-1-1-1 1zM944 513c-3 2-2 3 2 3 3 0 4-1 4-2l-1-2-5 1zM694 514c-2 1-2 1-1 2 1 2 4 0 5-2h-4zM964 521v3l1-5-1 2zM698 522c-2 1-3 5-1 6s6-3 6-5-2-3-5-1zM915 523h2l-2-1v1zM681 525c-4 0-6 2-4 3s6 0 8-1c1-2-1-3-4-2zM961 528c-1 2 0 3 1 1v-3l-1 2zM762 534c1 2 4 2 4 1l-2-2-2 1zM798 535h-5c-5 0-5 0-1 2s3 4-2 5l-8 2c-1 2-1 2 5 2 5 0 7 0 8-2l9-1c4 0 6-1 7-2 0-1-5-3-9-2h-3l1-2c2-3 2-3 0-3l-2 1zM1160 535l2 1c1 0 2 0 1-1l-2-1-1 1zM692 536h3c1-1 1-1-1-1-3 0-3 0-2 1z"/><path d="M773 537c0 2 1 2 6 2l7-1c1-1-1-1-5-1l-7-1c-1-1-1-1-1 1zM1169 536c-1 1-1 1 1 1l3-1h-4zM755 538c0 2 1 5 2 4l1-2c0-2-2-4-3-2zM743 539c-2 1-1 2 2 2l3-1c0-2-4-3-5-1zM817 539l-2 3c0 1 1 1 3-1l2-2h-3zM822 540l1 1c2 0 1-1 0-2l-1 1zM1156 541v6c-1 2-1 2 1 1l3-2-2-4c-2-3-2-3-2-1zM735 542v2c2 1 3 1 3-1-1-2-3-2-3-1zM1205 545h2c1-1 0-1-1-1s-2 0-1 1zM721 548l1 3 3 8 1 7 1-4-2-10c0-4-1-6-2-6l-2 1zM1196 549v1l1-1v-1l-2 1zM755 552c-3 1-2 3 1 3 2 0 4-1 4-4l-5 1zM736 553l2 2h1c-1-2-3-4-3-2zM1188 555h2l-2-1v1zM713 557v2c2 2 3 1 3-1 0-3-1-4-3-1zM1163 560c0 3 2 2 3 0l-1-2-2 2zM733 562c0 1 3 4 5 3 2 0 1-2-1-2l-3-2-1 1zM766 562l1 2 1-1c0-2 0-2-2-1zM1163 565l1 1 1-1-1-2-1 2zM760 567h3l-3-2v2zM755 568l-5 1c-6 1-7 2-4 5 2 3 4 2 4-1 0-2 0-2 2-1 2 2 6 0 6-3 0-2-2-3-3-1zM1155 569l-2 2 8-2h-6zM1154 583l1 3 1-3-1-4-1 4zM1186 581l1 1 1-2-1-1-1 2zM775 581l2 1-2-1c-1-1-1-1 0 0zM742 586c-1 1-1 2 1 2 3 1 5 0 4-2h-5zM827 594v1l2-1-1-1-1 1zM725 595h4l-3-1c-2 0-2 0-1 1zM1182 597h1v-2l-1 2zM796 600c0 3 15 15 17 13l2-1 2-1-4-1c-4 0-9-3-12-7s-5-5-5-3zM1179 603l1 3v-6l-1 3zM1168 607h1v-2l-1 2zM819 614l3 1-2-2c-2-1-2-1-1 1zM1177 615h1v-2l-1 2zM1165 615c0 2 9 12 9 10l-1-1-1-2c-1-2-7-9-7-7zM813 616l3 5c1 3 3 4 4 3 2 0 4 3 2 4h-3c-3-2-4 0-1 2l4 2h2l1-2c0-5 0-6 4-4 2 1 3 2 3 4 0 4 1 4 4 0 2-3 2-4-1-2h-2l2-2c3-2-1-3-7-3l-8-2-5-4-2-1zM1122 623l2 1 1-1-1-1-2 1zM770 624l1 1v-1l-1-1-1 1zM777 624l1 1 1-1-2-1-1 1zM1107 627c-1 1-1 1 1 3l2 3v-3c0-4 0-5-3-3zM772 628l1 1 1-1-1-1-1 1zM1194 628h2c1-1 0-1-1-1s-2 0-1 1zM803 629v3c2 0 3-3 2-3h-2zM790 630l1 1 1-1-1-1-1 1zM774 632h2l1-1-1-1-2 2zM813 632c-1 1 0 1 1 1l1-1-1-1-1 1zM160 123l1 2 1-1-1-3-1 2zM309 106l1 1 1-1-1-1-1 1zM99 117c-1 1 0 3 2 3l1-2c0-1-2-2-3-1zM96 125c-2 2-2 2 0 4 1 2 2 2 4 1 3-1 3-3 0-5-2-2-2-2-4 0zM431 153l-1 2-3 2c-1 1-1 1 4 1l6-1c0-1-1-2-3-2l-2-3-1-1-1 2zM479 181h2l-2-1v1zM89 203l-1 2c1 1 5-1 5-2h-4zM846 211l-2 2c1 2 6 0 6-1-1-2-2-2-4-1zM847 216l-1 2 3 1 3-2c0-2-3-2-5-1zM840 217c-1 1 0 2 2 2l1-2c0-1-2-2-3 0zM191 223c0 3 1 5 2 5 2 0 1-5-1-6l-1 1zM300 229c-2 1-5 2-6 1-3 0-3 0-2 1l5 2c3 0 8-3 8-5 0-1-1-1-5 1zM321 232c1 4 2 5 2 2l-2-4v2zM1144 272l1 1 1-1-1-2-1 2zM1126 282c4 3 11 5 13 4 3-2 2-3-4-3l-9-2c-2 0-2 0 0 1zM1202 234l2 1 1-1-1-2-2 2zM240 242c-4 2-15 9-14 10l2 1 4 2 4 2c5 0 6-1 5-6 0-2 0-3 2-3s2 0 2 4c-1 4-1 5 1 7h3c0-1 1-2 4-2s4-1 6-4l3-4-2-3-5-4h-15zM217 252c-2 1-3 4-1 4 1 0 6-4 5-5 0-1-1-1-4 1zM244 265c-5 0-3 3 3 3l2-2-1-2-4 1zM308 267l1 1 1-1v-1l-2 1zM240 272c-3 0-5 3-2 4l3-2c2-2 3-2 4-1 2 2 1 4-1 4-4 0-4 3-1 4 3 0 9-3 9-6s-4-4-12-3zM303 278v3l-1 6c-1 2-1 3 2 6l4 3c2-1 2-2 2-8l-2-9c-1-2-5-3-5-1zM264 285c-4 5-4 7 0 7l14 7 12 6c1 0 0-5-3-10-3-6-5-7-10-10l-8-4-5 4zM242 296v1l2-1-1-1-2 1zM168 322l-1 2c3 1 6-1 6-2h-5zM236 332c-3 1-3 2-3 6v5h4l7-1v-3l-2-5c1-3-1-4-6-2zM188 338c-1 3-3 4-4 4-2 0-3 1-3 9v7c2 0 1 3-2 5l-5 3-3 1c-3 0-2 3 1 6 3 2 3 4 4 9l3 7h2l2-10v-10l5-4c5-3 6-4 4-7-1-2-1-3 2-1 1 1 2 1 5-2 7-6 6-9-2-5l-4 2-1-5-1-9-2-4-1 4zM165 361c-1 1 0 3 2 3l1-2c-1-2-3-2-4-1zM235 365l1 1v-1l-1-1v1zM228 377c-2 0-3 2-1 2l2-1 1-2-2 1zM190 383c-2 1-1 6 1 6l1-3c0-4-1-5-2-3zM186 395c0 1 3 2 4 1l-2-1h-2zM195 404l1 1v-1l-1-1v1zM1186 257l-1 2h1l1-2h-1zM859 263l1 1 1-1-1-1-1 1zM850 285l1 2c1 1 4 0 9-2 2-1 2-1-3-1l-7 1zM909 312c-3 2-2 3 0 2 3-1 5-2 4-3 0-2-3-1-4 1zM889 313l3 1 2-1-2-1-3 1zM907 318c-1 2 2 3 4 3 4-1 4-4 0-4l-4 1zM889 319c-1 0-1 3 1 3 2 1 4-1 4-3h-5zM902 338h1l1-1h-1l-1 1zM906 346l-6 1c-4 0 0 2 5 2l6-2c2-3 1-4-5-1zM879 349c0 1 9 10 11 10 1 0 1-1-1-2l-6-5-4-4zM894 363c4 2 11 3 13 0l1-1-8-1-8-1 2 3zM662 482l3 1 2-1-2-1-3 1zM496 632l2 1 1-1-1-1-2 1zM127 607l2 2h1c0-2-3-4-3-2zM178 632l2 1-2-1c-1-1-1-1 0 0z"/></svg>